<svg xmlns="http://www.w3.org/2000/svg" width="375" viewBox="0 0 375 150" height="150" version="1.0"><defs><clipPath id="a"><path d="M 183 33.527344 L 246 33.527344 L 246 116.777344 L 183 116.777344 Z M 183 33.527344"/></clipPath></defs><path fill="#FFF" d="M 183.171875 34.996094 L 162.417969 34.996094 L 149.457031 115.507812 L 170.164062 115.507812 Z M 183.171875 34.996094"/><path fill="#FFF" d="M 267.011719 103.425781 L 293.695312 103.425781 C 294.351562 106.21875 296.226562 115.457031 296.226562 115.457031 L 315.464844 115.457031 L 298.757812 35.097656 L 282.503906 35.097656 C 281.933594 35.023438 281.359375 34.996094 280.78125 35.019531 C 280.203125 35.042969 279.632812 35.113281 279.070312 35.234375 C 278.503906 35.351562 277.953125 35.519531 277.417969 35.734375 C 276.882812 35.949219 276.367188 36.207031 275.875 36.511719 C 275.382812 36.816406 274.921875 37.15625 274.488281 37.539062 C 274.054688 37.921875 273.65625 38.335938 273.292969 38.789062 C 272.929688 39.238281 272.609375 39.714844 272.328125 40.222656 C 272.046875 40.726562 271.8125 41.253906 271.621094 41.800781 L 240.890625 115.761719 L 262.660156 115.761719 C 262.660156 115.761719 266.203125 105.609375 267.011719 103.425781 Z M 281.238281 64.441406 C 281.238281 64.441406 282.960938 59.769531 283.972656 56.773438 L 285.339844 63.730469 L 290.402344 86.976562 L 273.191406 86.976562 C 274.707031 82.359375 281.238281 64.441406 281.238281 64.441406 Z M 281.238281 64.441406"/><g clip-path="url(#a)"><path fill="#FFF" d="M 242.359375 89.210938 C 242.359375 80.023438 236.890625 73.070312 224.941406 67.332031 C 217.703125 63.628906 213.246094 61.140625 213.296875 57.179688 C 213.347656 53.222656 217.042969 50.277344 225.195312 50.277344 C 230.589844 50.152344 235.753906 51.1875 240.6875 53.375 L 242.558594 54.289062 L 245.394531 36.824219 C 239.414062 34.527344 233.21875 33.394531 226.816406 33.425781 C 206.5625 33.425781 191.933594 44.339844 191.78125 59.972656 C 191.78125 71.546875 201.90625 77.992188 209.90625 81.851562 C 217.90625 85.710938 220.6875 88.296875 220.6875 92.003906 C 220.6875 97.382812 214.207031 99.871094 208.285156 99.871094 C 204.898438 99.945312 201.550781 99.609375 198.246094 98.863281 C 194.9375 98.113281 191.773438 96.980469 188.742188 95.457031 L 186.058594 94.1875 L 183.171875 112.207031 C 190.597656 115.097656 198.292969 116.519531 206.261719 116.472656 C 227.878906 116.675781 242.207031 105.863281 242.359375 89.210938 Z M 242.359375 89.210938"/></g><path fill="#FFF" d="M 99.433594 115.40625 L 121.558594 115.40625 L 154.164062 35.097656 L 132.089844 35.097656 L 111.839844 89.972656 L 109.664062 78.804688 L 102.421875 41.851562 C 102.308594 41.332031 102.148438 40.832031 101.941406 40.34375 C 101.738281 39.855469 101.488281 39.390625 101.199219 38.945312 C 100.910156 38.503906 100.582031 38.089844 100.21875 37.707031 C 99.851562 37.324219 99.457031 36.976562 99.027344 36.664062 C 98.601562 36.355469 98.148438 36.085938 97.671875 35.855469 C 97.195312 35.628906 96.699219 35.445312 96.191406 35.308594 C 95.679688 35.167969 95.160156 35.078125 94.636719 35.035156 C 94.109375 34.992188 93.582031 34.996094 93.054688 35.046875 L 60.25 35.046875 C 60.070312 35.09375 59.925781 35.191406 59.808594 35.335938 C 59.695312 35.484375 59.640625 35.648438 59.640625 35.835938 C 59.640625 36.019531 59.695312 36.1875 59.808594 36.332031 C 59.925781 36.480469 60.070312 36.578125 60.25 36.621094 C 65 37.917969 69.609375 39.609375 74.070312 41.699219 C 75.167969 42.203125 76.191406 42.824219 77.152344 43.554688 C 78.109375 44.289062 78.976562 45.117188 79.75 46.042969 C 80.527344 46.972656 81.191406 47.972656 81.742188 49.042969 C 82.296875 50.117188 82.726562 51.238281 83.03125 52.410156 Z M 99.433594 115.40625"/></svg>