<svg xmlns="http://www.w3.org/2000/svg" width="375" viewBox="0 0 375 150" height="150" version="1.0"><path fill="#FFF" d="M 166.371094 85.257812 L 166.371094 72.710938 C 166.371094 67.976562 163.367188 64.789062 158.523438 64.75 C 157.835938 64.703125 157.152344 64.75 156.476562 64.890625 C 155.800781 65.03125 155.152344 65.257812 154.539062 65.570312 C 153.921875 65.882812 153.355469 66.273438 152.84375 66.738281 C 152.332031 67.203125 151.890625 67.726562 151.519531 68.3125 C 151.179688 67.746094 150.773438 67.234375 150.296875 66.777344 C 149.820312 66.320312 149.292969 65.933594 148.710938 65.621094 C 148.132812 65.308594 147.519531 65.078125 146.878906 64.929688 C 146.238281 64.78125 145.585938 64.722656 144.929688 64.75 C 144.355469 64.722656 143.789062 64.769531 143.226562 64.886719 C 142.667969 65.007812 142.132812 65.199219 141.621094 65.460938 C 141.109375 65.722656 140.640625 66.042969 140.210938 66.429688 C 139.785156 66.8125 139.414062 67.246094 139.097656 67.726562 L 139.097656 65.21875 L 134.757812 65.21875 L 134.757812 85.257812 L 139.140625 85.257812 L 139.140625 74.160156 C 139.140625 70.679688 141.054688 68.839844 144.019531 68.839844 C 146.988281 68.839844 148.363281 70.722656 148.363281 74.117188 L 148.363281 85.257812 L 152.71875 85.257812 L 152.71875 74.160156 C 152.71875 70.679688 154.71875 68.839844 157.601562 68.839844 C 160.484375 68.839844 161.984375 70.722656 161.984375 74.117188 L 161.984375 85.257812 Z M 231.210938 65.234375 L 224.121094 65.234375 L 224.121094 59.160156 L 219.742188 59.160156 L 219.742188 65.234375 L 215.691406 65.234375 L 215.691406 69.214844 L 219.742188 69.214844 L 219.742188 78.339844 C 219.742188 82.992188 221.53125 85.761719 226.664062 85.761719 C 228.617188 85.765625 230.425781 85.25 232.085938 84.214844 L 230.835938 80.484375 C 229.652344 81.191406 228.375 81.566406 226.996094 81.613281 C 224.832031 81.613281 224.113281 80.273438 224.113281 78.265625 L 224.113281 69.214844 L 231.203125 69.214844 Z M 268.226562 64.730469 C 267.695312 64.714844 267.175781 64.773438 266.660156 64.898438 C 266.148438 65.023438 265.660156 65.214844 265.195312 65.472656 C 264.734375 65.734375 264.3125 66.046875 263.933594 66.421875 C 263.558594 66.792969 263.234375 67.207031 262.96875 67.667969 L 262.96875 65.234375 L 258.671875 65.234375 L 258.671875 85.257812 L 263.011719 85.257812 L 263.011719 74.035156 C 263.011719 70.6875 264.425781 68.882812 267.269531 68.882812 C 268.207031 68.867188 269.113281 69.035156 269.984375 69.382812 L 271.316406 65.277344 C 270.316406 64.917969 269.289062 64.734375 268.226562 64.730469 Z M 212.269531 66.824219 C 209.757812 65.328125 207.046875 64.628906 204.128906 64.730469 C 199.078125 64.730469 195.796875 67.167969 195.796875 71.140625 C 195.796875 74.410156 198.214844 76.417969 202.679688 77.046875 L 204.71875 77.335938 C 207.09375 77.671875 208.226562 78.300781 208.226562 79.429688 C 208.226562 80.976562 206.644531 81.863281 203.679688 81.863281 C 202.480469 81.902344 201.3125 81.742188 200.171875 81.382812 C 199.027344 81.023438 197.976562 80.488281 197.015625 79.773438 L 195.039062 83.160156 C 196.304688 84.046875 197.671875 84.710938 199.152344 85.15625 C 200.628906 85.601562 202.136719 85.804688 203.679688 85.761719 C 209.433594 85.761719 212.777344 83.035156 212.777344 79.226562 C 212.777344 75.707031 210.144531 73.867188 205.8125 73.238281 L 203.769531 72.945312 C 201.894531 72.695312 200.386719 72.320312 200.386719 70.980469 C 200.386719 69.515625 201.804688 68.636719 204.1875 68.636719 C 206.40625 68.671875 208.476562 69.242188 210.402344 70.351562 Z M 328.5 64.730469 C 327.972656 64.714844 327.449219 64.773438 326.933594 64.898438 C 326.421875 65.023438 325.933594 65.214844 325.46875 65.472656 C 325.007812 65.734375 324.585938 66.046875 324.210938 66.421875 C 323.832031 66.792969 323.507812 67.207031 323.242188 67.667969 L 323.242188 65.234375 L 318.945312 65.234375 L 318.945312 85.257812 L 323.285156 85.257812 L 323.285156 74.035156 C 323.285156 70.6875 324.703125 68.882812 327.542969 68.882812 C 328.480469 68.867188 329.386719 69.035156 330.257812 69.382812 L 331.589844 65.277344 C 330.589844 64.917969 329.5625 64.734375 328.5 64.730469 Z M 272.609375 75.246094 C 272.609375 81.320312 276.824219 85.761719 283.246094 85.761719 C 284.550781 85.824219 285.820312 85.652344 287.054688 85.238281 C 288.292969 84.828125 289.414062 84.203125 290.417969 83.367188 L 288.335938 79.847656 C 286.796875 81.023438 285.058594 81.625 283.121094 81.644531 C 279.65625 81.644531 277.117188 79.085938 277.117188 75.238281 C 277.117188 71.390625 279.664062 68.871094 283.121094 68.832031 C 285.058594 68.851562 286.796875 69.453125 288.335938 70.628906 L 290.417969 67.109375 C 289.414062 66.273438 288.292969 65.648438 287.054688 65.238281 C 285.820312 64.824219 284.550781 64.652344 283.246094 64.714844 C 276.824219 64.714844 272.609375 69.15625 272.609375 75.230469 Z M 313.246094 75.246094 L 313.246094 65.210938 L 308.90625 65.210938 L 308.90625 67.644531 C 308.15625 66.671875 307.222656 65.925781 306.113281 65.40625 C 305 64.886719 303.832031 64.65625 302.609375 64.707031 C 297.019531 64.707031 292.609375 69.105469 292.609375 75.222656 C 292.609375 81.335938 296.992188 85.734375 302.609375 85.734375 C 303.832031 85.789062 305 85.554688 306.113281 85.035156 C 307.222656 84.519531 308.15625 83.773438 308.90625 82.800781 L 308.90625 85.226562 L 313.246094 85.226562 Z M 297.101562 75.246094 C 297.101562 71.726562 299.390625 68.839844 303.148438 68.839844 C 306.738281 68.839844 309.15625 71.609375 309.15625 75.246094 C 309.15625 78.886719 306.738281 81.652344 303.148438 81.652344 C 299.390625 81.652344 297.101562 78.761719 297.101562 75.246094 Z M 244.734375 64.730469 C 238.902344 64.730469 234.804688 69.007812 234.804688 75.246094 C 234.804688 81.613281 239.058594 85.761719 245.023438 85.761719 C 246.515625 85.8125 247.964844 85.597656 249.375 85.113281 C 250.78125 84.628906 252.0625 83.90625 253.207031 82.949219 L 251.082031 79.722656 C 249.375 81.089844 247.433594 81.789062 245.25 81.8125 C 242.449219 81.8125 239.910156 80.515625 239.285156 76.910156 L 254.097656 76.910156 C 254.140625 76.367188 254.179688 75.824219 254.179688 75.238281 C 254.179688 69 250.296875 64.722656 244.707031 64.722656 Z M 244.648438 68.628906 C 247.449219 68.628906 249.238281 70.386719 249.699219 73.488281 L 239.359375 73.488281 C 239.816406 70.597656 241.566406 68.628906 244.65625 68.628906 Z M 353.492188 75.246094 L 353.492188 57.1875 L 349.152344 57.1875 L 349.152344 67.660156 C 348.402344 66.6875 347.46875 65.941406 346.359375 65.421875 C 345.246094 64.90625 344.078125 64.671875 342.855469 64.722656 C 337.265625 64.722656 332.855469 69.125 332.855469 75.238281 C 332.855469 81.351562 337.238281 85.753906 342.855469 85.753906 C 344.078125 85.804688 345.246094 85.570312 346.359375 85.054688 C 347.46875 84.535156 348.402344 83.789062 349.152344 82.816406 L 349.152344 85.242188 L 353.492188 85.242188 Z M 358.566406 83.410156 C 358.738281 83.410156 358.90625 83.441406 359.066406 83.511719 C 359.21875 83.578125 359.355469 83.667969 359.472656 83.785156 C 359.59375 83.902344 359.683594 84.035156 359.75 84.1875 C 359.890625 84.515625 359.890625 84.847656 359.75 85.175781 C 359.683594 85.328125 359.589844 85.460938 359.472656 85.578125 C 359.355469 85.695312 359.21875 85.785156 359.066406 85.851562 C 358.90625 85.921875 358.738281 85.953125 358.566406 85.953125 C 358.308594 85.957031 358.066406 85.886719 357.851562 85.746094 C 357.632812 85.605469 357.46875 85.414062 357.367188 85.175781 C 357.226562 84.847656 357.226562 84.515625 357.367188 84.1875 C 357.503906 83.867188 357.730469 83.644531 358.050781 83.511719 C 358.21875 83.441406 358.398438 83.40625 358.582031 83.410156 Z M 358.566406 85.667969 C 358.699219 85.671875 358.828125 85.644531 358.949219 85.59375 C 359.066406 85.542969 359.167969 85.472656 359.257812 85.382812 C 359.449219 85.191406 359.546875 84.957031 359.546875 84.683594 C 359.546875 84.40625 359.449219 84.171875 359.257812 83.980469 C 359.167969 83.890625 359.066406 83.820312 358.949219 83.769531 C 358.828125 83.71875 358.699219 83.695312 358.566406 83.695312 C 358.429688 83.691406 358.300781 83.71875 358.175781 83.769531 C 358.023438 83.835938 357.898438 83.929688 357.792969 84.058594 C 357.691406 84.1875 357.625 84.332031 357.589844 84.492188 C 357.558594 84.65625 357.566406 84.816406 357.613281 84.972656 C 357.660156 85.128906 357.742188 85.265625 357.859375 85.382812 C 357.949219 85.476562 358.054688 85.542969 358.175781 85.59375 C 358.304688 85.648438 358.441406 85.671875 358.582031 85.667969 Z M 358.640625 84.078125 C 358.769531 84.070312 358.886719 84.105469 358.992188 84.179688 C 359.078125 84.25 359.121094 84.34375 359.117188 84.457031 C 359.121094 84.550781 359.085938 84.632812 359.015625 84.699219 C 358.9375 84.769531 358.847656 84.808594 358.742188 84.816406 L 359.125 85.257812 L 358.824219 85.257812 L 358.464844 84.816406 L 358.351562 84.816406 L 358.351562 85.257812 L 358.101562 85.257812 L 358.101562 84.089844 Z M 358.351562 84.296875 L 358.351562 84.613281 L 358.640625 84.613281 C 358.695312 84.628906 358.746094 84.628906 358.800781 84.613281 C 358.839844 84.585938 358.859375 84.546875 358.859375 84.496094 C 358.859375 84.449219 358.839844 84.410156 358.800781 84.378906 C 358.746094 84.367188 358.695312 84.367188 358.640625 84.378906 Z M 337.363281 75.246094 C 337.363281 71.726562 339.65625 68.839844 343.414062 68.839844 C 347.003906 68.839844 349.417969 71.609375 349.417969 75.246094 C 349.417969 78.886719 347.003906 81.652344 343.414062 81.652344 C 339.65625 81.652344 337.363281 78.761719 337.363281 75.246094 Z M 190.824219 75.246094 L 190.824219 65.210938 L 186.484375 65.210938 L 186.484375 67.644531 C 185.734375 66.679688 184.804688 65.941406 183.699219 65.425781 C 182.589844 64.914062 181.429688 64.679688 180.210938 64.730469 C 174.621094 64.730469 170.214844 69.132812 170.214844 75.246094 C 170.214844 81.359375 174.59375 85.761719 180.210938 85.761719 C 181.433594 85.8125 182.601562 85.578125 183.714844 85.0625 C 184.828125 84.542969 185.757812 83.796875 186.507812 82.824219 L 186.507812 85.25 L 190.847656 85.25 Z M 174.679688 75.246094 C 174.679688 71.726562 176.96875 68.839844 180.726562 68.839844 C 184.316406 68.839844 186.734375 71.609375 186.734375 75.246094 C 186.734375 78.886719 184.316406 81.652344 180.726562 81.652344 C 176.96875 81.652344 174.679688 78.769531 174.679688 75.246094 Z M 174.679688 75.246094"/><path fill="#FF5F00" d="M 53.132812 51.441406 L 79.375 51.441406 L 79.375 98.792969 L 53.132812 98.792969 Z M 53.132812 51.441406"/><path fill="#EB001B" d="M 54.796875 75.128906 C 54.796875 72.851562 55.046875 70.597656 55.558594 68.375 C 56.066406 66.15625 56.816406 64.019531 57.808594 61.96875 C 58.800781 59.917969 60.007812 58.003906 61.433594 56.230469 C 62.859375 54.457031 64.464844 52.863281 66.253906 51.457031 C 65.519531 50.878906 64.761719 50.335938 63.976562 49.828125 C 63.195312 49.320312 62.386719 48.851562 61.5625 48.417969 C 60.734375 47.988281 59.886719 47.59375 59.023438 47.242188 C 58.160156 46.890625 57.28125 46.578125 56.390625 46.304688 C 55.496094 46.035156 54.59375 45.808594 53.679688 45.621094 C 52.765625 45.433594 51.847656 45.292969 50.917969 45.191406 C 49.992188 45.09375 49.0625 45.035156 48.128906 45.023438 C 47.199219 45.011719 46.265625 45.042969 45.335938 45.117188 C 44.40625 45.191406 43.484375 45.308594 42.566406 45.46875 C 41.648438 45.628906 40.738281 45.832031 39.839844 46.078125 C 38.9375 46.324219 38.050781 46.613281 37.179688 46.941406 C 36.304688 47.269531 35.449219 47.640625 34.613281 48.050781 C 33.773438 48.457031 32.957031 48.90625 32.15625 49.390625 C 31.359375 49.878906 30.589844 50.398438 29.839844 50.957031 C 29.089844 51.515625 28.371094 52.109375 27.675781 52.734375 C 26.984375 53.359375 26.320312 54.015625 25.6875 54.703125 C 25.054688 55.390625 24.457031 56.109375 23.890625 56.851562 C 23.324219 57.597656 22.792969 58.363281 22.296875 59.15625 C 21.804688 59.953125 21.347656 60.765625 20.925781 61.601562 C 20.507812 62.441406 20.128906 63.292969 19.789062 64.164062 C 19.449219 65.039062 19.152344 65.921875 18.894531 66.824219 C 18.636719 67.722656 18.421875 68.632812 18.25 69.554688 C 18.074219 70.472656 17.945312 71.398438 17.859375 72.332031 C 17.773438 73.261719 17.730469 74.199219 17.730469 75.132812 C 17.730469 76.070312 17.773438 77.003906 17.859375 77.9375 C 17.945312 78.867188 18.074219 79.792969 18.25 80.714844 C 18.421875 81.632812 18.636719 82.542969 18.894531 83.445312 C 19.152344 84.34375 19.449219 85.230469 19.789062 86.101562 C 20.128906 86.972656 20.507812 87.828125 20.925781 88.664062 C 21.347656 89.5 21.804688 90.316406 22.296875 91.109375 C 22.792969 91.902344 23.324219 92.671875 23.890625 93.414062 C 24.457031 94.160156 25.054688 94.875 25.6875 95.5625 C 26.320312 96.25 26.984375 96.90625 27.675781 97.535156 C 28.371094 98.160156 29.089844 98.75 29.839844 99.308594 C 30.589844 99.867188 31.359375 100.390625 32.15625 100.875 C 32.957031 101.359375 33.773438 101.808594 34.613281 102.21875 C 35.449219 102.625 36.304688 102.996094 37.179688 103.324219 C 38.050781 103.652344 38.9375 103.941406 39.839844 104.1875 C 40.738281 104.433594 41.648438 104.636719 42.566406 104.796875 C 43.484375 104.960938 44.40625 105.078125 45.335938 105.152344 C 46.265625 105.226562 47.199219 105.257812 48.128906 105.242188 C 49.0625 105.230469 49.992188 105.175781 50.917969 105.074219 C 51.847656 104.976562 52.765625 104.832031 53.679688 104.644531 C 54.59375 104.460938 55.496094 104.230469 56.390625 103.960938 C 57.28125 103.691406 58.160156 103.378906 59.023438 103.027344 C 59.886719 102.671875 60.734375 102.28125 61.5625 101.847656 C 62.386719 101.417969 63.195312 100.945312 63.976562 100.4375 C 64.761719 99.929688 65.519531 99.386719 66.253906 98.808594 C 64.464844 97.402344 62.859375 95.808594 61.433594 94.035156 C 60.007812 92.261719 58.796875 90.347656 57.804688 88.296875 C 56.8125 86.246094 56.0625 84.105469 55.554688 81.882812 C 55.046875 79.660156 54.792969 77.410156 54.796875 75.128906 Z M 54.796875 75.128906"/><path fill="#F79E1B" d="M 114.78125 75.128906 C 114.78125 76.535156 114.683594 77.933594 114.488281 79.324219 C 114.292969 80.71875 114 82.089844 113.613281 83.441406 C 113.226562 84.792969 112.75 86.109375 112.179688 87.394531 C 111.609375 88.675781 110.953125 89.914062 110.210938 91.105469 C 109.46875 92.296875 108.644531 93.429688 107.746094 94.507812 C 106.84375 95.582031 105.871094 96.589844 104.832031 97.53125 C 103.789062 98.46875 102.6875 99.332031 101.527344 100.117188 C 100.363281 100.902344 99.152344 101.601562 97.894531 102.214844 C 96.636719 102.828125 95.339844 103.351562 94.007812 103.785156 C 92.675781 104.214844 91.320312 104.550781 89.941406 104.792969 C 88.5625 105.035156 87.171875 105.179688 85.773438 105.226562 C 84.371094 105.273438 82.976562 105.21875 81.585938 105.070312 C 80.195312 104.917969 78.820312 104.671875 77.460938 104.328125 C 76.101562 103.984375 74.777344 103.550781 73.480469 103.019531 C 72.183594 102.488281 70.929688 101.871094 69.71875 101.164062 C 68.507812 100.457031 67.351562 99.671875 66.253906 98.800781 C 67.140625 98.097656 67.988281 97.347656 68.796875 96.550781 C 69.601562 95.753906 70.359375 94.910156 71.070312 94.027344 C 71.777344 93.140625 72.4375 92.21875 73.042969 91.257812 C 73.648438 90.300781 74.199219 89.308594 74.695312 88.289062 C 75.191406 87.265625 75.625 86.21875 76.003906 85.148438 C 76.378906 84.074219 76.695312 82.984375 76.949219 81.878906 C 77.203125 80.769531 77.390625 79.652344 77.519531 78.523438 C 77.648438 77.394531 77.710938 76.261719 77.710938 75.125 C 77.710938 73.988281 77.648438 72.855469 77.519531 71.726562 C 77.390625 70.597656 77.203125 69.480469 76.949219 68.371094 C 76.695312 67.265625 76.378906 66.175781 76.003906 65.105469 C 75.625 64.03125 75.191406 62.984375 74.695312 61.964844 C 74.199219 60.941406 73.648438 59.949219 73.042969 58.992188 C 72.4375 58.03125 71.777344 57.109375 71.070312 56.226562 C 70.359375 55.339844 69.601562 54.5 68.796875 53.699219 C 67.988281 52.902344 67.140625 52.152344 66.253906 51.449219 C 67.351562 50.582031 68.507812 49.792969 69.71875 49.085938 C 70.929688 48.378906 72.183594 47.761719 73.480469 47.230469 C 74.777344 46.703125 76.105469 46.265625 77.460938 45.921875 C 78.820312 45.578125 80.195312 45.332031 81.585938 45.179688 C 82.980469 45.03125 84.375 44.980469 85.773438 45.023438 C 87.175781 45.070312 88.5625 45.214844 89.941406 45.457031 C 91.324219 45.699219 92.679688 46.035156 94.011719 46.46875 C 95.34375 46.898438 96.640625 47.421875 97.898438 48.039062 C 99.15625 48.652344 100.367188 49.351562 101.53125 50.136719 C 102.691406 50.921875 103.792969 51.785156 104.835938 52.722656 C 105.875 53.664062 106.847656 54.671875 107.75 55.746094 C 108.648438 56.824219 109.472656 57.957031 110.214844 59.148438 C 110.957031 60.34375 111.613281 61.578125 112.183594 62.863281 C 112.753906 64.148438 113.230469 65.464844 113.617188 66.816406 C 114.003906 68.167969 114.292969 69.539062 114.488281 70.933594 C 114.683594 72.324219 114.78125 73.722656 114.78125 75.128906 Z M 114.78125 75.128906"/><path fill="#F79E1B" d="M 111.898438 93.773438 L 111.898438 92.804688 L 112.289062 92.804688 L 112.289062 92.613281 L 111.3125 92.613281 L 111.3125 92.8125 L 111.707031 92.8125 L 111.707031 93.78125 Z M 113.820312 93.773438 L 113.820312 92.601562 L 113.5625 92.601562 L 113.214844 93.441406 L 112.863281 92.601562 L 112.554688 92.601562 L 112.554688 93.773438 L 112.730469 93.773438 L 112.730469 92.894531 L 113.054688 93.65625 L 113.28125 93.65625 L 113.605469 92.894531 L 113.605469 93.78125 Z M 113.820312 93.773438"/></svg>