<svg xmlns="http://www.w3.org/2000/svg" width="375" viewBox="0 0 375 150" height="150" version="1.0"><defs><clipPath id="a"><path d="M 36.597656 37.175781 L 96 37.175781 L 96 105 L 36.597656 105 Z M 36.597656 37.175781"/></clipPath><clipPath id="b"><path d="M 52 56 L 101.847656 56 L 101.847656 112.925781 L 52 112.925781 Z M 52 56"/></clipPath></defs><path fill="#FFF" d="M 164.789062 68.109375 C 164.789062 73.253906 162.675781 77.394531 158.417969 80.546875 C 154.160156 83.695312 148.21875 85.257812 140.59375 85.257812 L 136.363281 85.257812 L 133.117188 99.304688 L 121.957031 99.304688 L 131.902344 56.15625 L 147.390625 56.15625 C 150.207031 56.15625 152.652344 56.359375 154.742188 56.738281 C 156.835938 57.117188 158.648438 57.796875 160.164062 58.730469 C 161.644531 59.644531 162.792969 60.871094 163.613281 62.410156 C 164.394531 63.972656 164.796875 65.863281 164.796875 68.109375 Z M 152.925781 69.195312 C 152.925781 67.503906 152.324219 66.269531 151.089844 65.433594 C 149.855469 64.59375 148.066406 64.222656 145.667969 64.222656 L 141.191406 64.222656 L 138.214844 77.132812 L 142.222656 77.132812 C 145.597656 77.132812 148.238281 76.453125 150.105469 75.0625 C 151.992188 73.675781 152.925781 71.707031 152.925781 69.164062 Z M 185.316406 95.878906 L 182.945312 97.445312 C 182.015625 98.050781 181.160156 98.53125 180.378906 98.882812 C 179.390625 99.304688 178.375 99.640625 177.332031 99.890625 C 176.371094 100.117188 175.0625 100.246094 173.402344 100.246094 C 170.710938 100.246094 168.492188 99.496094 166.78125 97.976562 C 165.070312 96.457031 164.210938 94.46875 164.210938 92.015625 C 164.210938 89.445312 164.816406 87.3125 166.03125 85.484375 C 167.242188 83.660156 169.050781 82.253906 171.449219 81.199219 C 173.691406 80.1875 176.359375 79.457031 179.433594 79 L 189.484375 78.015625 L 189.609375 77.460938 C 189.683594 77.210938 189.710938 76.90625 189.710938 76.582031 C 189.726562 76.273438 189.691406 75.972656 189.613281 75.671875 C 189.53125 75.375 189.40625 75.097656 189.238281 74.839844 C 189.070312 74.582031 188.863281 74.355469 188.625 74.160156 C 188.382812 73.96875 188.117188 73.816406 187.828125 73.707031 C 186.578125 73.152344 184.65625 72.875 182.136719 72.875 C 180.425781 72.875 178.535156 73.152344 176.449219 73.730469 L 171.789062 75.167969 L 170.832031 75.167969 L 172.398438 67.453125 C 173.605469 67.152344 175.53125 66.824219 178.035156 66.417969 C 180.542969 66.007812 183.121094 65.835938 185.640625 65.835938 C 190.726562 65.835938 194.480469 66.464844 196.847656 67.828125 C 199.242188 69.164062 200.425781 71.230469 200.425781 74.035156 C 200.421875 74.539062 200.386719 75.042969 200.324219 75.546875 C 200.269531 76.089844 200.179688 76.628906 200.046875 77.160156 L 194.960938 99.304688 L 184.613281 99.304688 Z M 188.082031 83.972656 L 182.847656 84.527344 C 181.425781 84.6875 180.042969 85 178.691406 85.460938 C 177.507812 85.890625 176.601562 86.496094 175.996094 87.25 C 175.371094 88.03125 175.066406 89.035156 175.066406 90.324219 C 175.066406 91.433594 175.472656 92.203125 176.300781 92.695312 C 177.128906 93.183594 178.3125 93.375 179.902344 93.375 C 180.9375 93.375 182.015625 93.148438 183.199219 92.667969 C 184.371094 92.191406 185.472656 91.585938 186.5 90.847656 Z M 216.394531 111.261719 L 204.929688 111.261719 L 213.214844 98.679688 L 207.875 66.804688 L 218.527344 66.804688 L 221.34375 88.113281 L 233.707031 66.804688 L 244.710938 66.804688 Z M 216.394531 111.261719"/><path fill="#FFF" d="M 286.367188 68.109375 C 286.367188 73.253906 284.253906 77.394531 279.996094 80.546875 C 275.738281 83.695312 269.796875 85.257812 262.171875 85.257812 L 257.941406 85.257812 L 254.695312 99.304688 L 243.535156 99.304688 L 253.460938 56.183594 L 268.945312 56.183594 C 271.765625 56.183594 274.207031 56.382812 276.300781 56.761719 C 278.390625 57.140625 280.203125 57.824219 281.71875 58.753906 C 283.199219 59.671875 284.347656 60.898438 285.167969 62.4375 C 285.972656 64.003906 286.375 65.867188 286.375 68.082031 Z M 274.480469 69.195312 C 274.480469 67.503906 273.875 66.269531 272.640625 65.433594 C 271.40625 64.59375 269.617188 64.222656 267.222656 64.222656 L 262.742188 64.222656 L 259.769531 77.132812 L 263.769531 77.132812 C 267.144531 77.132812 269.785156 76.453125 271.652344 75.0625 C 273.539062 73.675781 274.472656 71.707031 274.472656 69.164062 Z M 306.890625 95.878906 L 304.523438 97.445312 C 303.59375 98.050781 302.738281 98.53125 301.957031 98.882812 C 300.96875 99.304688 299.953125 99.640625 298.910156 99.890625 C 297.949219 100.117188 296.640625 100.246094 294.980469 100.246094 C 292.285156 100.246094 290.070312 99.496094 288.359375 97.976562 C 286.648438 96.457031 285.789062 94.46875 285.789062 92.015625 C 285.789062 89.445312 286.394531 87.3125 287.605469 85.484375 C 288.820312 83.660156 290.628906 82.253906 293.027344 81.199219 C 295.269531 80.1875 297.9375 79.457031 301.011719 79 L 311.0625 78.015625 L 311.1875 77.460938 C 311.261719 77.210938 311.285156 76.90625 311.285156 76.582031 C 311.300781 76.273438 311.269531 75.972656 311.191406 75.671875 C 311.109375 75.375 310.984375 75.097656 310.816406 74.839844 C 310.648438 74.582031 310.441406 74.355469 310.203125 74.160156 C 309.960938 73.96875 309.695312 73.816406 309.40625 73.707031 C 308.15625 73.152344 306.234375 72.875 303.714844 72.875 C 302.003906 72.875 300.113281 73.152344 298.023438 73.730469 L 293.367188 75.167969 L 292.410156 75.167969 L 293.976562 67.453125 C 295.183594 67.152344 297.109375 66.824219 299.613281 66.417969 C 302.117188 66.007812 304.699219 65.835938 307.21875 65.835938 C 312.304688 65.835938 316.058594 66.464844 318.425781 67.828125 C 320.820312 69.164062 322.003906 71.230469 322.003906 74.035156 C 322 74.539062 321.964844 75.042969 321.902344 75.546875 C 321.847656 76.089844 321.757812 76.628906 321.625 77.160156 L 316.539062 99.304688 L 306.164062 99.304688 Z M 309.660156 83.972656 L 304.425781 84.527344 C 303.003906 84.6875 301.621094 85 300.269531 85.460938 C 299.082031 85.890625 298.179688 86.496094 297.574219 87.25 C 296.949219 88.03125 296.644531 89.035156 296.644531 90.324219 C 296.644531 91.433594 297.050781 92.203125 297.878906 92.695312 C 298.703125 93.183594 299.890625 93.375 301.480469 93.375 C 302.511719 93.375 303.59375 93.148438 304.777344 92.667969 C 305.949219 92.191406 307.046875 91.585938 308.078125 90.847656 Z M 346.855469 54.238281 L 336.457031 99.328125 L 325.980469 99.328125 L 336.378906 54.238281 Z M 346.855469 54.238281"/><g clip-path="url(#a)" fill="#27346A"><path d="M 91.640625 42.890625 C 88.121094 38.894531 81.757812 37.179688 73.613281 37.179688 L 49.980469 37.179688 C 48.3125 37.179688 46.898438 38.386719 46.636719 40.023438 L 36.796875 102.195312 C 36.601562 103.421875 37.554688 104.53125 38.800781 104.53125 L 53.390625 104.53125 L 57.054688 81.378906 L 56.941406 82.105469 C 57.203125 80.464844 58.609375 79.261719 60.269531 79.261719 L 67.207031 79.261719 C 80.828125 79.261719 91.492188 73.75 94.605469 57.804688 C 94.699219 57.335938 94.777344 56.875 94.847656 56.425781 C 94.457031 56.21875 94.457031 56.21875 94.847656 56.425781 C 95.777344 50.535156 94.839844 46.523438 91.640625 42.890625"/><path d="M 62.640625 54.304688 C 63.027344 54.121094 63.460938 54.015625 63.914062 54.015625 L 82.445312 54.015625 C 84.636719 54.015625 86.683594 54.160156 88.554688 54.460938 C 89.089844 54.546875 89.609375 54.644531 90.117188 54.757812 C 90.617188 54.867188 91.109375 54.992188 91.585938 55.132812 C 91.820312 55.203125 92.058594 55.273438 92.285156 55.347656 C 93.203125 55.652344 94.0625 56.011719 94.847656 56.425781 C 95.777344 50.53125 94.839844 46.523438 91.640625 42.890625 C 88.121094 38.894531 81.757812 37.179688 73.613281 37.179688 L 49.976562 37.179688 C 48.3125 37.179688 46.898438 38.386719 46.636719 40.023438 L 36.796875 102.195312 C 36.601562 103.421875 37.554688 104.53125 38.796875 104.53125 L 53.390625 104.53125 L 60.992188 56.503906 C 61.148438 55.519531 61.785156 54.714844 62.640625 54.304688 Z M 62.640625 54.304688"/></g><g clip-path="url(#b)"><path fill="#2790C3" d="M 94.605469 57.804688 C 91.492188 73.746094 80.828125 79.261719 67.207031 79.261719 L 60.269531 79.261719 C 58.605469 79.261719 57.199219 80.464844 56.941406 82.105469 L 52.382812 110.890625 C 52.210938 111.964844 53.046875 112.9375 54.136719 112.9375 L 66.433594 112.9375 C 67.890625 112.9375 69.128906 111.882812 69.355469 110.449219 L 69.476562 109.824219 L 71.792969 95.191406 L 71.945312 94.382812 C 72.171875 92.949219 73.410156 91.894531 74.863281 91.894531 L 76.707031 91.894531 C 88.621094 91.894531 97.949219 87.070312 100.675781 73.128906 C 101.8125 67.300781 101.226562 62.433594 98.214844 59.015625 C 97.304688 57.980469 96.167969 57.125 94.847656 56.425781 C 94.777344 56.878906 94.699219 57.335938 94.605469 57.804688 Z M 94.605469 57.804688"/></g><path fill="#1F264F" d="M 91.585938 55.132812 C 91.113281 54.992188 90.621094 54.867188 90.117188 54.757812 C 89.613281 54.644531 89.089844 54.546875 88.558594 54.460938 C 86.683594 54.160156 84.640625 54.015625 82.445312 54.015625 L 63.917969 54.015625 C 63.460938 54.015625 63.027344 54.121094 62.640625 54.304688 C 61.785156 54.714844 61.152344 55.519531 60.996094 56.507812 L 57.058594 81.378906 L 56.945312 82.105469 C 57.203125 80.464844 58.609375 79.261719 60.269531 79.261719 L 67.207031 79.261719 C 80.828125 79.261719 91.492188 73.75 94.609375 57.804688 C 94.699219 57.335938 94.777344 56.878906 94.847656 56.425781 C 94.0625 56.011719 93.207031 55.652344 92.285156 55.351562 C 92.058594 55.273438 91.824219 55.203125 91.585938 55.132812"/></svg>