<svg xmlns="http://www.w3.org/2000/svg" width="375" viewBox="0 0 375 150" height="150" version="1.0"><path fill="#FFF" d="M-37.5 -15H412.5V165H-37.5z"/><path d="M-37.5 -15H412.5V165H-37.5z"/><path fill="#F7931A" d="M 88.777344 83.449219 C 84.027344 102.398438 64.789062 113.976562 45.644531 109.238281 C 26.632812 104.503906 15.011719 85.332031 19.765625 66.257812 C 24.519531 47.3125 43.757812 35.734375 62.898438 40.472656 C 81.914062 45.207031 93.535156 64.375 88.777344 83.449219 Z M 88.777344 83.449219"/><path fill="#FFF" d="M 69.941406 69.773438 C 70.644531 65.035156 67.035156 62.488281 62.109375 60.824219 L 63.691406 54.421875 L 59.820312 53.457031 L 58.234375 59.679688 L 55.066406 58.976562 L 56.652344 52.753906 L 52.777344 51.789062 L 51.195312 58.195312 L 48.730469 57.582031 L 43.398438 56.265625 L 42.34375 60.386719 L 45.164062 61.085938 C 45.4375 61.117188 45.695312 61.199219 45.933594 61.332031 C 46.175781 61.464844 46.382812 61.636719 46.554688 61.851562 C 46.726562 62.0625 46.855469 62.300781 46.933594 62.5625 C 47.011719 62.828125 47.035156 63.09375 47.007812 63.367188 L 45.164062 70.652344 C 45.25 70.652344 45.429688 70.738281 45.605469 70.738281 C 45.515625 70.738281 45.339844 70.652344 45.164062 70.652344 L 42.613281 80.828125 C 42.4375 81.269531 41.90625 82.058594 40.851562 81.792969 C 40.851562 81.878906 38.035156 81.089844 38.035156 81.089844 L 36.128906 85.570312 L 41.234375 86.796875 L 44.050781 87.5 L 42.464844 93.949219 L 46.339844 94.914062 L 47.921875 88.507812 L 50.96875 89.296875 L 49.386719 95.703125 L 53.257812 96.667969 L 54.84375 90.214844 C 61.53125 91.445312 66.457031 91.003906 68.574219 84.953125 C 70.25 80.136719 68.488281 77.363281 64.964844 75.480469 C 67.605469 74.949219 69.457031 73.285156 69.984375 69.777344 Z M 61.050781 82.316406 C 59.816406 87.136719 51.71875 84.511719 49.078125 83.894531 L 51.191406 75.300781 C 53.832031 75.914062 62.285156 77.199219 61.089844 82.320312 Z M 62.285156 69.773438 C 61.226562 74.160156 54.363281 71.964844 52.160156 71.351562 L 54.066406 63.546875 C 56.265625 64.160156 63.394531 65.125 62.253906 69.769531 Z M 62.285156 69.773438"/><path fill="#FFF" d="M 122.933594 60.816406 C 125.839844 60.816406 128.261719 61.347656 130.414062 62.308594 C 132.527344 63.359375 134.289062 64.675781 135.609375 66.429688 C 137.019531 68.183594 137.984375 70.199219 138.65625 72.570312 C 139.304688 75.042969 139.628906 77.554688 139.621094 80.113281 C 139.636719 84.152344 138.875 88.042969 137.335938 91.78125 C 135.878906 95.375 133.796875 98.5625 131.085938 101.339844 C 128.390625 104.089844 125.28125 106.238281 121.753906 107.792969 C 118.019531 109.410156 114.117188 110.199219 110.046875 110.160156 L 107.226562 110.160156 C 105.90625 110.160156 104.324219 109.984375 102.5625 109.71875 L 97.019531 108.667969 C 95.117188 108.230469 93.234375 107.53125 91.476562 106.773438 L 107.058594 41.597656 L 120.964844 39.40625 L 115.417969 62.5625 C 116.652344 62.03125 117.796875 61.597656 119.027344 61.332031 C 120.292969 60.972656 121.585938 60.796875 122.902344 60.800781 Z M 111.226562 99.238281 C 113.339844 99.238281 115.273438 98.707031 117.128906 97.75 C 119.011719 96.6875 120.625 95.316406 121.96875 93.628906 C 123.289062 91.957031 124.34375 90.03125 125.136719 87.835938 C 125.929688 85.644531 126.28125 83.449219 126.28125 81.082031 C 126.28125 78.1875 125.839844 76 124.871094 74.328125 C 123.902344 72.75 122.140625 71.875 119.589844 71.875 C 118.714844 71.875 117.683594 72.050781 116.332031 72.316406 C 114.980469 72.582031 113.78125 73.277344 112.722656 74.210938 L 106.820312 98.773438 C 107.171875 98.859375 107.527344 98.859375 107.789062 98.949219 C 108.050781 99.035156 108.320312 99.035156 108.664062 99.121094 C 108.929688 99.121094 109.367188 99.210938 109.71875 99.210938 L 111.214844 99.210938 Z M 154.179688 109.105469 L 140.851562 109.105469 L 152.085938 61.878906 L 165.46875 61.878906 Z M 160.609375 56.128906 C 158.742188 56.152344 157.066406 55.597656 155.589844 54.457031 C 154.09375 53.320312 153.304688 51.648438 153.304688 49.375 C 153.304688 48.144531 153.570312 46.917969 154.097656 45.863281 C 154.589844 44.773438 155.265625 43.808594 156.121094 42.96875 C 157.003906 42.191406 157.972656 41.546875 159.027344 41.035156 C 160.171875 40.59375 161.3125 40.332031 162.550781 40.332031 C 164.417969 40.308594 166.089844 40.863281 167.570312 42 C 169.066406 43.140625 169.855469 44.808594 169.855469 47.085938 C 169.855469 48.316406 169.585938 49.539062 169.0625 50.59375 C 168.566406 51.6875 167.890625 52.652344 167.035156 53.492188 C 166.242188 54.28125 165.1875 54.894531 164.128906 55.386719 C 163.070312 55.882812 161.929688 56.089844 160.609375 56.089844 Z M 177.15625 50.15625 L 191.15625 47.960938 L 187.722656 61.910156 L 202.6875 61.910156 L 199.957031 72.914062 L 185.078125 72.914062 L 181.117188 89.40625 C 180.796875 90.671875 180.589844 91.957031 180.5 93.261719 C 180.417969 94.488281 180.589844 95.457031 180.941406 96.300781 C 181.304688 97.242188 181.949219 97.914062 182.882812 98.316406 C 183.847656 98.757812 185.164062 99.019531 186.839844 99.019531 C 188.25 99.019531 189.660156 98.84375 191.03125 98.578125 C 192.414062 98.320312 193.761719 97.941406 195.078125 97.4375 L 196.046875 107.699219 C 194.140625 108.371094 192.203125 108.929688 190.234375 109.367188 C 188.121094 109.898438 185.65625 110.070312 182.75 110.070312 C 178.617188 110.070312 175.441406 109.453125 173.15625 108.230469 C 170.871094 107.003906 169.28125 105.332031 168.320312 103.226562 C 167.355469 101.121094 166.910156 98.667969 167.085938 95.941406 C 167.171875 93.222656 167.617188 90.328125 168.320312 87.214844 Z M 202.070312 90.242188 C 202.074219 86.304688 202.722656 82.476562 204.007812 78.753906 C 205.277344 75.261719 207.15625 72.136719 209.640625 69.371094 C 212.101562 66.648438 215.097656 64.550781 218.617188 62.964844 C 222.140625 61.378906 226.011719 60.597656 230.328125 60.597656 C 233.058594 60.597656 235.429688 60.863281 237.546875 61.386719 C 239.664062 61.910156 241.59375 62.523438 243.359375 63.40625 L 238.78125 73.839844 C 237.546875 73.308594 236.316406 72.96875 235.085938 72.523438 C 233.765625 72.082031 232.183594 71.910156 230.335938 71.910156 C 225.84375 71.910156 222.414062 73.398438 219.773438 76.46875 C 217.128906 79.539062 215.8125 83.574219 215.8125 88.75 C 215.8125 91.785156 216.515625 94.273438 217.835938 96.117188 C 219.160156 98.015625 221.621094 98.925781 225.148438 98.925781 C 226.839844 98.933594 228.515625 98.757812 230.167969 98.398438 C 231.644531 98.085938 233.082031 97.644531 234.480469 97.082031 L 235.449219 107.78125 L 229.90625 109.535156 C 227.878906 110.066406 225.410156 110.324219 222.59375 110.324219 C 218.898438 110.324219 215.726562 109.792969 213.175781 108.746094 C 210.71875 107.742188 208.574219 106.28125 206.75 104.359375 C 205.035156 102.507812 203.832031 100.371094 203.140625 97.953125 C 202.421875 95.429688 202.070312 92.859375 202.085938 90.234375 Z M 261.222656 110.296875 C 258.054688 110.296875 255.234375 109.765625 252.945312 108.890625 C 250.570312 107.929688 248.632812 106.617188 247.136719 104.859375 C 245.589844 103.035156 244.445312 100.988281 243.703125 98.71875 C 242.910156 96.351562 242.558594 93.71875 242.558594 90.914062 C 242.558594 87.316406 243.175781 83.71875 244.320312 80.128906 C 245.433594 76.582031 247.167969 73.367188 249.511719 70.476562 C 251.796875 67.582031 254.613281 65.214844 257.875 63.457031 C 261.128906 61.617188 264.917969 60.738281 269.230469 60.738281 C 272.070312 60.722656 274.828125 61.1875 277.503906 62.140625 C 279.878906 63.105469 281.820312 64.417969 283.316406 66.175781 C 284.863281 67.996094 286.007812 70.042969 286.75 72.316406 C 287.542969 74.683594 287.894531 77.316406 287.894531 80.121094 C 287.894531 83.714844 287.359375 87.3125 286.21875 90.90625 C 285.074219 94.5 283.398438 97.75 281.199219 100.554688 C 278.996094 103.453125 276.179688 105.730469 272.835938 107.574219 C 269.492188 109.421875 265.617188 110.296875 261.222656 110.296875 Z M 267.914062 71.878906 C 266 71.878906 264.269531 72.433594 262.71875 73.542969 C 261.222656 74.683594 259.988281 76.085938 258.933594 77.84375 C 257.878906 79.601562 257.175781 81.441406 256.648438 83.546875 C 256.121094 85.652344 255.855469 87.578125 255.855469 89.425781 C 255.855469 92.410156 256.390625 94.738281 257.265625 96.445312 C 258.234375 98.117188 259.996094 98.988281 262.460938 98.988281 C 264.484375 98.988281 266.152344 98.457031 267.652344 97.320312 C 269.152344 96.179688 270.382812 94.777344 271.4375 93.019531 C 272.492188 91.265625 273.199219 89.421875 273.722656 87.316406 C 274.238281 85.390625 274.503906 83.429688 274.515625 81.4375 C 274.515625 78.453125 274.074219 76.125 273.105469 74.417969 C 272.140625 72.710938 270.375 71.875 267.914062 71.875 Z M 302.425781 109.0625 L 289.097656 109.0625 L 300.367188 61.871094 L 313.75 61.871094 Z M 308.851562 56.085938 C 306.984375 56.109375 305.3125 55.554688 303.832031 54.417969 C 302.335938 53.277344 301.546875 51.609375 301.546875 49.332031 C 301.546875 48.101562 301.816406 46.875 302.339844 45.820312 C 302.835938 44.730469 303.507812 43.765625 304.367188 42.925781 C 305.246094 42.148438 306.214844 41.503906 307.269531 40.992188 C 308.414062 40.550781 309.554688 40.289062 310.792969 40.289062 C 312.660156 40.265625 314.335938 40.820312 315.8125 41.960938 C 317.308594 43.097656 318.097656 44.765625 318.097656 47.042969 C 318.097656 48.273438 317.832031 49.5 317.304688 50.554688 C 316.8125 51.644531 316.136719 52.609375 315.28125 53.449219 C 314.398438 54.226562 313.429688 54.871094 312.375 55.382812 C 311.316406 55.914062 310.171875 56.085938 308.851562 56.085938 Z M 323.367188 63.976562 L 326.710938 62.925781 L 330.847656 61.875 C 332.53125 61.5 334.234375 61.238281 335.953125 61.085938 L 342.378906 60.738281 C 349.425781 60.738281 354.261719 62.757812 356.902344 66.878906 C 359.546875 70.910156 360.074219 76.527344 358.3125 83.542969 L 352.152344 108.980469 L 338.769531 108.980469 L 344.671875 84.070312 L 345.550781 79.507812 C 345.722656 78.015625 345.722656 76.789062 345.460938 75.648438 C 345.238281 74.539062 344.679688 73.632812 343.785156 72.929688 C 342.902344 72.226562 341.585938 71.878906 339.738281 71.878906 C 337.980469 71.878906 336.214844 72.054688 334.457031 72.410156 L 325.699219 108.898438 L 312.316406 108.898438 Z M 323.367188 63.976562"/></svg>