<svg version="1.1" id="Layer_1" xmlns="http://www.w3.org/2000/svg" xmlns:xlink="http://www.w3.org/1999/xlink" x="0px" y="0px"
	 width="100%" viewBox="0 0 994 251" enable-background="new 0 0 994 251" xml:space="preserve">
<path fill="#010101" opacity="1.000000" stroke="none" 
	d="
M736.000000,252.000000 
	C490.666656,252.000000 245.833328,252.000000 1.000000,252.000000 
	C1.000000,168.333328 1.000000,84.666664 1.000000,1.000000 
	C332.333344,1.000000 663.666687,1.000000 995.000000,1.000000 
	C995.000000,84.666664 995.000000,168.333328 995.000000,252.000000 
	C908.833313,252.000000 822.666687,252.000000 736.000000,252.000000 
M149.876923,185.992233 
	C153.837860,185.900925 157.798782,185.809616 162.596283,185.858002 
	C171.732773,185.871140 180.869278,185.884277 190.930359,186.057877 
	C196.244919,186.047775 201.560120,186.085373 206.873901,186.015457 
	C213.502991,185.928238 216.403442,183.321594 217.476791,176.548462 
	C217.476791,176.548462 217.485199,176.423294 217.631180,175.569489 
	C217.583694,169.437256 217.536209,163.305023 217.714539,156.575073 
	C217.663055,156.368759 217.611557,156.162430 217.668991,155.033554 
	C217.619736,149.033844 217.570480,143.034119 217.722198,136.498566 
	C217.661591,136.317673 217.600983,136.136795 217.647903,135.033600 
	C217.515549,129.378922 217.383194,123.724251 217.570038,117.167015 
	C217.493134,110.459190 217.416229,103.751358 217.658554,96.148026 
	C217.686234,89.992386 217.913574,83.827835 217.639389,77.685669 
	C217.535568,75.359825 216.275085,73.085609 215.176331,70.133934 
	C212.713898,69.042999 210.308533,67.207588 207.777344,67.013557 
	C202.223038,66.587784 196.605026,66.992973 190.085190,66.895958 
	C184.057953,66.949196 178.030716,67.002434 171.077530,66.892769 
	C162.052567,66.941872 153.027603,66.990982 143.076508,66.889809 
	C137.716476,66.948502 132.356461,67.007187 126.071564,66.902809 
	C118.709763,66.951767 111.347961,67.000725 103.064186,66.888702 
	C97.374763,66.947281 91.685349,67.005859 85.072273,66.893860 
	C77.714813,66.950569 70.357353,67.007278 62.075855,66.893318 
	C56.755291,66.873360 51.433674,66.778442 46.114441,66.853218 
	C40.034451,66.938690 37.599144,68.874634 35.426197,75.140205 
	C35.272415,75.462639 35.336136,75.734100 35.471970,76.882736 
	C35.522064,82.880157 35.572159,88.877586 35.310780,95.456314 
	C35.445763,96.076256 35.580746,96.696198 35.594418,98.112854 
	C35.655460,104.069351 35.716503,110.025841 35.485455,116.879852 
	C35.526852,123.270119 35.568249,129.660385 35.303329,136.928146 
	C35.411686,142.321960 35.520039,147.715775 35.413185,154.004120 
	C35.548847,161.684998 35.684509,169.365875 35.741199,177.817200 
	C37.332802,183.632263 39.978493,185.904526 45.721149,186.001541 
	C50.142921,186.076248 54.569286,185.878784 59.794567,185.974762 
	C60.878891,185.914810 61.963211,185.854874 63.496937,185.913773 
	C63.496937,185.913773 63.940929,185.776077 64.749954,185.965775 
	C65.850105,185.918442 66.950264,185.871094 68.501282,185.928482 
	C68.501282,185.928482 68.945450,185.798218 69.870422,185.970383 
	C74.576965,185.913086 79.283516,185.855789 84.913673,185.975128 
	C92.953445,185.916473 100.993217,185.857819 109.947342,185.988815 
	C115.636559,185.924561 121.325775,185.860306 127.936653,185.956421 
	C133.641068,185.910873 139.345490,185.865326 145.819290,186.018051 
	C146.871231,185.951569 147.923157,185.885086 149.876923,185.992233 
M919.728394,122.848587 
	C917.419067,141.601746 905.993103,151.419693 887.818420,150.267685 
	C871.751038,149.249252 863.689148,139.112091 863.686157,119.921112 
	C863.684753,111.301537 863.685913,102.681969 863.685913,93.826218 
	C857.991150,93.826218 852.752258,93.826218 847.216980,93.826218 
	C847.216980,104.100563 847.208862,114.076065 847.224304,124.051521 
	C847.227173,125.883011 847.215027,127.725395 847.396912,129.544037 
	C849.106445,146.632874 859.514465,158.156937 876.461426,161.046951 
	C893.356323,163.928101 908.105286,160.202820 918.783447,145.445648 
	C921.242920,155.134583 916.489685,164.786514 906.872864,169.903732 
	C899.465088,173.845535 891.434143,175.002228 883.171814,174.835693 
	C869.057251,174.551254 856.115295,170.406204 844.192566,162.259827 
	C842.730225,164.743179 841.455444,166.867859 840.222229,169.016373 
	C839.411377,170.428909 838.660156,171.875763 837.936157,173.208084 
	C838.311218,173.698654 838.480103,173.992661 838.717468,174.212982 
	C839.082275,174.551559 839.463196,174.892349 839.890259,175.141571 
	C864.273987,189.372238 889.746826,192.428177 915.878540,180.999817 
	C929.411011,175.081573 936.129028,163.785065 936.044128,148.711090 
	C935.948486,131.715652 936.028442,114.719269 936.012817,97.723312 
	C936.011658,96.449188 935.858154,95.175209 935.766541,93.763107 
	C930.365967,93.763107 925.260681,93.763107 919.780518,93.763107 
	C919.780518,103.313454 919.780518,112.627472 919.728394,122.848587 
M681.958679,148.553894 
	C691.181641,130.419464 700.404541,112.285042 709.942749,93.530792 
	C705.149353,93.530792 701.316589,93.779343 697.532043,93.458275 
	C694.011292,93.159569 692.272217,94.499115 690.725952,97.647530 
	C683.538025,112.283249 676.061401,126.777298 668.669189,141.312408 
	C668.061157,142.507935 667.311279,143.631317 666.410706,145.154526 
	C659.437927,131.422745 652.034363,118.521477 646.278992,104.922615 
	C642.390198,95.734177 637.229309,91.775818 627.308838,93.358429 
	C624.212097,93.852448 622.330383,94.318985 620.853271,97.340096 
	C613.910095,111.541077 606.691467,125.607491 599.558899,139.715714 
	C598.760010,141.295944 597.883240,142.836838 596.756226,144.927246 
	C588.327271,128.603607 580.268799,112.948242 572.135437,97.331863 
	C571.414429,95.947456 570.277832,93.815964 569.210693,93.738747 
	C564.019653,93.363152 558.786560,93.568985 553.020630,93.568985 
	C562.208191,111.290176 571.852478,127.733704 579.338013,145.107376 
	C584.144287,156.262634 590.551575,160.576385 602.188416,158.606018 
	C604.838867,158.157227 606.207397,157.469879 607.362366,155.084518 
	C613.161194,143.108536 619.144653,131.221848 625.080444,119.312347 
	C627.110962,115.238350 629.191406,111.189247 631.546631,106.541328 
	C639.168701,121.632706 646.768433,135.879181 653.555847,150.502686 
	C656.369934,156.565826 659.676025,158.660690 666.507996,158.792465 
	C674.417603,158.944992 679.548889,157.143127 681.958679,148.553894 
M761.252075,160.825836 
	C774.519470,159.613525 786.444580,155.629318 794.909790,143.563736 
	C795.663818,149.081131 796.288879,153.654785 796.913879,158.228043 
	C801.761353,158.228043 806.203613,158.228043 810.642334,158.228043 
	C810.642334,126.780746 810.642334,95.571243 810.642334,64.336624 
	C805.234375,64.336624 800.151794,64.336624 794.516357,64.336624 
	C794.516357,78.721756 794.516357,92.877930 794.516357,107.016190 
	C790.501343,103.735550 787.194763,100.044815 783.088440,97.850456 
	C765.697327,88.556923 747.879089,88.689690 730.455017,97.589325 
	C718.928345,103.476753 713.277405,113.660149 713.450623,126.556496 
	C713.624207,139.481186 719.883850,149.026993 731.283203,155.095169 
	C740.359070,159.926498 750.171570,161.277618 761.252075,160.825836 
M502.403564,91.195572 
	C490.947998,91.042038 479.799561,92.464058 469.486816,97.875679 
	C458.109436,103.845924 451.367920,112.989456 451.381378,126.126999 
	C451.394867,139.274948 458.006714,148.828827 469.616638,154.238281 
	C490.079865,163.772781 510.979309,163.703720 531.366638,154.051758 
	C542.720947,148.676315 549.154480,139.290390 549.224365,126.245613 
	C549.294312,113.202789 542.752625,104.214828 531.719238,98.145920 
	C522.918518,93.305084 513.267578,91.667137 502.403564,91.195572 
M308.418518,91.969032 
	C301.982635,94.106926 295.135712,95.457115 289.200287,98.554115 
	C278.359344,104.210655 272.481720,113.709259 272.455688,126.118263 
	C272.429565,138.584381 278.359039,148.235214 289.311157,153.594437 
	C312.402344,164.893723 335.350861,163.857498 357.278107,150.094971 
	C363.418701,146.240860 367.819183,140.611511 370.236816,133.178406 
	C365.116821,132.014008 360.295105,130.917450 355.583435,129.845917 
	C344.388550,148.547760 319.581146,155.167511 300.531494,144.797821 
	C286.620270,137.225250 284.451111,120.156326 296.141449,110.253067 
	C310.803131,97.832687 336.712677,101.153442 347.479828,117.064301 
	C352.153503,115.914001 356.928497,114.738762 362.040588,113.480553 
	C359.010498,105.454765 353.460999,100.420372 346.355957,97.042374 
	C334.578827,91.443062 322.131348,90.127876 308.418518,91.969032 
M409.554016,92.966988 
	C404.006897,97.036346 398.459778,101.105713 393.137360,105.010239 
	C392.649536,101.917099 392.013824,97.886513 391.368591,93.795479 
	C386.573425,93.795479 382.159210,93.795479 377.657593,93.795479 
	C377.657593,115.427765 377.657593,136.777252 377.657593,158.204437 
	C383.091095,158.204437 388.185059,158.204437 393.885864,158.204437 
	C393.885864,147.655365 393.327362,137.332092 394.112732,127.112106 
	C394.528503,121.701492 396.451752,115.992432 399.173615,111.270760 
	C403.223083,104.246040 410.415955,102.080139 418.233917,103.362434 
	C425.535309,104.559998 429.161987,109.752495 430.716675,116.632713 
	C430.886627,117.384796 431.055695,118.137070 431.296814,119.207268 
	C436.269684,117.958405 440.865753,116.804169 445.387543,115.668587 
	C443.610504,96.507530 429.202911,87.267776 409.554016,92.966988 
M820.985046,105.500000 
	C820.985046,122.974854 820.985046,140.449707 820.985046,158.109009 
	C826.490967,158.109009 831.701172,158.109009 836.876099,158.109009 
	C836.876099,126.677498 836.876099,95.596535 836.876099,64.371689 
	C831.540405,64.371689 826.472107,64.371689 820.985046,64.371689 
	C820.985046,77.924973 820.985046,91.212486 820.985046,105.500000 
z"/>
<path fill="#F9F9F9" opacity="1.000000" stroke="none" 
	d="
M919.754456,122.395042 
	C919.780518,112.627472 919.780518,103.313454 919.780518,93.763107 
	C925.260681,93.763107 930.365967,93.763107 935.766541,93.763107 
	C935.858154,95.175209 936.011658,96.449188 936.012817,97.723312 
	C936.028442,114.719269 935.948486,131.715652 936.044128,148.711090 
	C936.129028,163.785065 929.411011,175.081573 915.878540,180.999817 
	C889.746826,192.428177 864.273987,189.372238 839.890259,175.141571 
	C839.463196,174.892349 839.082275,174.551559 838.717468,174.212982 
	C838.480103,173.992661 838.311218,173.698654 837.936157,173.208084 
	C838.660156,171.875763 839.411377,170.428909 840.222229,169.016373 
	C841.455444,166.867859 842.730225,164.743179 844.192566,162.259827 
	C856.115295,170.406204 869.057251,174.551254 883.171814,174.835693 
	C891.434143,175.002228 899.465088,173.845535 906.872864,169.903732 
	C916.489685,164.786514 921.242920,155.134583 918.783447,145.445648 
	C908.105286,160.202820 893.356323,163.928101 876.461426,161.046951 
	C859.514465,158.156937 849.106445,146.632874 847.396912,129.544037 
	C847.215027,127.725395 847.227173,125.883011 847.224304,124.051521 
	C847.208862,114.076065 847.216980,104.100563 847.216980,93.826218 
	C852.752258,93.826218 857.991150,93.826218 863.685913,93.826218 
	C863.685913,102.681969 863.684753,111.301537 863.686157,119.921112 
	C863.689148,139.112091 871.751038,149.249252 887.818420,150.267685 
	C905.993103,151.419693 917.419067,141.601746 919.754456,122.395042 
z"/>
<path fill="#FAFAFA" opacity="1.000000" stroke="none" 
	d="
M681.790283,148.886642 
	C679.548889,157.143127 674.417603,158.944992 666.507996,158.792465 
	C659.676025,158.660690 656.369934,156.565826 653.555847,150.502686 
	C646.768433,135.879181 639.168701,121.632706 631.546631,106.541328 
	C629.191406,111.189247 627.110962,115.238350 625.080444,119.312347 
	C619.144653,131.221848 613.161194,143.108536 607.362366,155.084518 
	C606.207397,157.469879 604.838867,158.157227 602.188416,158.606018 
	C590.551575,160.576385 584.144287,156.262634 579.338013,145.107376 
	C571.852478,127.733704 562.208191,111.290176 553.020630,93.568985 
	C558.786560,93.568985 564.019653,93.363152 569.210693,93.738747 
	C570.277832,93.815964 571.414429,95.947456 572.135437,97.331863 
	C580.268799,112.948242 588.327271,128.603607 596.756226,144.927246 
	C597.883240,142.836838 598.760010,141.295944 599.558899,139.715714 
	C606.691467,125.607491 613.910095,111.541077 620.853271,97.340096 
	C622.330383,94.318985 624.212097,93.852448 627.308838,93.358429 
	C637.229309,91.775818 642.390198,95.734177 646.278992,104.922615 
	C652.034363,118.521477 659.437927,131.422745 666.410706,145.154526 
	C667.311279,143.631317 668.061157,142.507935 668.669189,141.312408 
	C676.061401,126.777298 683.538025,112.283249 690.725952,97.647530 
	C692.272217,94.499115 694.011292,93.159569 697.532043,93.458275 
	C701.316589,93.779343 705.149353,93.530792 709.942749,93.530792 
	C700.404541,112.285042 691.181641,130.419464 681.790283,148.886642 
z"/>
<path fill="#FAFAFA" opacity="1.000000" stroke="none" 
	d="
M760.782471,160.843689 
	C750.171570,161.277618 740.359070,159.926498 731.283203,155.095169 
	C719.883850,149.026993 713.624207,139.481186 713.450623,126.556496 
	C713.277405,113.660149 718.928345,103.476753 730.455017,97.589325 
	C747.879089,88.689690 765.697327,88.556923 783.088440,97.850456 
	C787.194763,100.044815 790.501343,103.735550 794.516357,107.016190 
	C794.516357,92.877930 794.516357,78.721756 794.516357,64.336624 
	C800.151794,64.336624 805.234375,64.336624 810.642334,64.336624 
	C810.642334,95.571243 810.642334,126.780746 810.642334,158.228043 
	C806.203613,158.228043 801.761353,158.228043 796.913879,158.228043 
	C796.288879,153.654785 795.663818,149.081131 794.909790,143.563736 
	C786.444580,155.629318 774.519470,159.613525 760.782471,160.843689 
M749.067139,105.245918 
	C745.183472,107.077454 740.956360,108.418480 737.489746,110.845665 
	C730.874451,115.477402 728.538635,122.276848 730.095093,130.157104 
	C731.340210,136.461411 735.377136,141.022903 741.007874,143.653412 
	C755.221069,150.293304 769.813843,150.565170 783.783386,143.431061 
	C787.974976,141.290451 791.805298,136.700745 793.783325,132.321609 
	C798.210449,122.520668 792.545959,111.817772 781.255920,107.173157 
	C771.090027,102.991035 760.535706,102.864510 749.067139,105.245918 
z"/>
<path fill="#F9F9F9" opacity="1.000000" stroke="none" 
	d="
M502.881653,91.204346 
	C513.267578,91.667137 522.918518,93.305084 531.719238,98.145920 
	C542.752625,104.214828 549.294312,113.202789 549.224365,126.245613 
	C549.154480,139.290390 542.720947,148.676315 531.366638,154.051758 
	C510.979309,163.703720 490.079865,163.772781 469.616638,154.238281 
	C458.006714,148.828827 451.394867,139.274948 451.381378,126.126999 
	C451.367920,112.989456 458.109436,103.845924 469.486816,97.875679 
	C479.799561,92.464058 490.947998,91.042038 502.881653,91.204346 
M525.818848,110.631310 
	C513.521362,101.462601 491.591644,100.217613 478.459137,108.002693 
	C471.513428,112.120193 467.472717,118.042961 467.574524,126.353432 
	C467.679260,134.905212 471.998932,141.085831 479.405243,144.598892 
	C493.081482,151.085983 507.255127,151.272491 520.859436,144.712708 
	C534.838562,137.972229 537.073181,122.458580 525.818848,110.631310 
z"/>
<path fill="#F8F8F8" opacity="1.000000" stroke="none" 
	d="
M308.855652,91.911804 
	C322.131348,90.127876 334.578827,91.443062 346.355957,97.042374 
	C353.460999,100.420372 359.010498,105.454765 362.040588,113.480553 
	C356.928497,114.738762 352.153503,115.914001 347.479828,117.064301 
	C336.712677,101.153442 310.803131,97.832687 296.141449,110.253067 
	C284.451111,120.156326 286.620270,137.225250 300.531494,144.797821 
	C319.581146,155.167511 344.388550,148.547760 355.583435,129.845917 
	C360.295105,130.917450 365.116821,132.014008 370.236816,133.178406 
	C367.819183,140.611511 363.418701,146.240860 357.278107,150.094971 
	C335.350861,163.857498 312.402344,164.893723 289.311157,153.594437 
	C278.359039,148.235214 272.429565,138.584381 272.455688,126.118263 
	C272.481720,113.709259 278.359344,104.210655 289.200287,98.554115 
	C295.135712,95.457115 301.982635,94.106926 308.855652,91.911804 
z"/>
<path fill="#F6F6F6" opacity="1.000000" stroke="none" 
	d="
M409.934021,92.844948 
	C429.202911,87.267776 443.610504,96.507530 445.387543,115.668587 
	C440.865753,116.804169 436.269684,117.958405 431.296814,119.207268 
	C431.055695,118.137070 430.886627,117.384796 430.716675,116.632713 
	C429.161987,109.752495 425.535309,104.559998 418.233917,103.362434 
	C410.415955,102.080139 403.223083,104.246040 399.173615,111.270760 
	C396.451752,115.992432 394.528503,121.701492 394.112732,127.112106 
	C393.327362,137.332092 393.885864,147.655365 393.885864,158.204437 
	C388.185059,158.204437 383.091095,158.204437 377.657593,158.204437 
	C377.657593,136.777252 377.657593,115.427765 377.657593,93.795479 
	C382.159210,93.795479 386.573425,93.795479 391.368591,93.795479 
	C392.013824,97.886513 392.649536,101.917099 393.137360,105.010239 
	C398.459778,101.105713 404.006897,97.036346 409.934021,92.844948 
z"/>
<path fill="#FBFBFB" opacity="1.000000" stroke="none" 
	d="
M820.985046,105.000000 
	C820.985046,91.212486 820.985046,77.924973 820.985046,64.371689 
	C826.472107,64.371689 831.540405,64.371689 836.876099,64.371689 
	C836.876099,95.596535 836.876099,126.677498 836.876099,158.109009 
	C831.701172,158.109009 826.490967,158.109009 820.985046,158.109009 
	C820.985046,140.449707 820.985046,122.974854 820.985046,105.000000 
z"/>
<path fill="#4901DE" opacity="1.000000" stroke="none" 
	d="
M217.488724,157.172791 
	C217.536209,163.305023 217.583694,169.437256 217.372543,175.933899 
	C217.006897,176.362289 216.899887,176.426270 216.792877,176.490234 
	C216.885986,176.573914 216.967499,176.699966 217.075378,176.729401 
	C217.184601,176.759201 217.319901,176.693405 217.443787,176.669464 
	C216.403442,183.321594 213.502991,185.928238 206.873901,186.015457 
	C201.560120,186.085373 196.244919,186.047775 190.506897,185.640747 
	C191.063309,183.479782 192.043167,181.735947 193.482346,179.915817 
	C197.102844,179.817291 200.264008,179.784546 203.425232,179.774902 
	C211.006149,179.751785 211.006165,179.756165 211.537598,171.946930 
	C211.570816,171.527191 211.478256,171.227692 211.341919,170.487335 
	C211.336014,167.390060 211.373886,164.733658 211.575775,161.934692 
	C211.899612,161.547836 212.025604,161.287155 212.402069,160.865845 
	C214.060043,159.491119 215.433731,158.260666 216.974442,157.081635 
	C217.141464,157.133087 217.488724,157.172791 217.488724,157.172791 
z"/>
<path fill="#F00046" opacity="1.000000" stroke="none" 
	d="
M35.622257,94.875008 
	C35.572159,88.877586 35.522064,82.880157 35.654488,76.243813 
	C35.933411,75.320862 35.897530,75.054619 35.729366,74.806152 
	C37.599144,68.874634 40.034451,66.938690 46.114441,66.853218 
	C51.433674,66.778442 56.755291,66.873360 62.501358,67.307671 
	C61.612007,69.441750 60.297153,71.161476 58.522800,72.955444 
	C55.121593,73.044411 52.179897,73.064774 49.238171,73.072708 
	C42.212212,73.091667 42.212204,73.089302 41.524986,80.020119 
	C41.433441,80.687019 41.579277,81.331848 41.800274,82.416382 
	C41.835323,85.230186 41.795216,87.604271 41.496231,90.153358 
	C39.547539,91.876976 37.857719,93.425583 36.034969,94.930252 
	C35.902039,94.886322 35.622257,94.875008 35.622257,94.875008 
z"/>
<path fill="#5B00CF" opacity="1.000000" stroke="none" 
	d="
M216.807419,157.030197 
	C215.433731,158.260666 214.060043,159.491119 212.219208,160.819092 
	C211.752075,160.916626 211.379089,160.870651 211.330978,160.413513 
	C211.335403,150.650986 211.387939,141.345612 211.558990,131.924164 
	C211.807053,131.453354 211.715271,131.169250 211.353760,130.512085 
	C211.351959,127.391899 211.398544,124.715424 211.598877,121.909012 
	C211.902679,121.554352 212.022095,121.314362 212.428467,121.013412 
	C214.247665,120.001671 215.749252,119.035622 217.250839,118.069580 
	C217.383194,123.724251 217.515549,129.378922 217.475311,135.605820 
	C217.157455,136.519699 217.230286,136.805161 217.521210,137.034409 
	C217.570480,143.034119 217.619736,149.033844 217.452393,155.643646 
	C217.082367,156.506699 216.939575,156.765518 216.807419,157.030197 
z"/>
<path fill="#A80180" opacity="1.000000" stroke="none" 
	d="
M144.002640,67.040085 
	C153.027603,66.990982 162.052567,66.941872 171.533173,67.347641 
	C171.657730,69.496010 171.326660,71.189507 170.532700,72.959396 
	C160.044540,72.991730 150.019287,72.947670 140.153549,72.618675 
	C141.542923,70.569183 142.772781,68.804634 144.002640,67.040085 
z"/>
<path fill="#7302BD" opacity="1.000000" stroke="none" 
	d="
M217.410431,117.618301 
	C215.749252,119.035622 214.247665,120.001671 212.255493,120.954865 
	C211.764908,120.942009 211.405518,120.888901 211.352173,120.431297 
	C211.367889,111.320312 211.436951,102.666931 211.806580,94.080185 
	C213.851196,95.112389 215.595276,96.077957 217.339340,97.043533 
	C217.416229,103.751358 217.493134,110.459190 217.410431,117.618301 
z"/>
<path fill="#5B00CF" opacity="1.000000" stroke="none" 
	d="
M193.023041,179.992111 
	C192.043167,181.735947 191.063309,183.479782 190.044617,185.560516 
	C180.869278,185.884277 171.732773,185.871140 162.265228,185.382553 
	C162.952988,183.260666 163.971786,181.614212 165.455948,179.898346 
	C174.955231,179.883347 183.989120,179.937729 193.023041,179.992111 
z"/>
<path fill="#7903A6" opacity="1.000000" stroke="none" 
	d="
M217.498947,96.595779 
	C215.595276,96.077957 213.851196,95.112389 211.702148,93.621490 
	C211.272034,89.626770 211.444550,86.141304 211.163864,82.692726 
	C210.904724,79.509132 210.159424,76.365105 210.028687,73.147667 
	C212.133362,72.323738 213.837585,71.555801 215.541824,70.787872 
	C216.275085,73.085609 217.535568,75.359825 217.639389,77.685669 
	C217.913574,83.827835 217.686234,89.992386 217.498947,96.595779 
z"/>
<path fill="#A80180" opacity="1.000000" stroke="none" 
	d="
M58.993614,185.802353 
	C54.569286,185.878784 50.142921,186.076248 45.721149,186.001541 
	C39.978493,185.904526 37.332802,183.632263 36.095829,177.296326 
	C38.219975,174.847595 39.989494,172.919769 41.828651,171.421936 
	C42.071239,179.764450 42.071316,179.746811 50.036583,179.780838 
	C53.352718,179.795013 56.668457,179.902344 59.981102,180.344177 
	C59.649757,182.414810 59.321686,184.108582 58.993614,185.802353 
z"/>
<path fill="#89039F" opacity="1.000000" stroke="none" 
	d="
M109.032990,185.799164 
	C100.993217,185.857819 92.953445,185.916473 84.462540,185.516510 
	C84.340149,183.362625 84.668892,181.667374 85.461639,179.896454 
	C94.951393,179.863235 103.977127,179.905701 112.972176,180.284546 
	C111.638657,182.347015 110.335823,184.073090 109.032990,185.799164 
z"/>
<path fill="#DF0353" opacity="1.000000" stroke="none" 
	d="
M36.167900,94.974190 
	C37.857719,93.425583 39.547539,91.876976 41.577637,90.617767 
	C41.858204,99.600838 41.798496,108.294518 41.382320,116.989960 
	C39.276421,116.655266 37.526985,116.318802 35.777550,115.982338 
	C35.716503,110.025841 35.655460,104.069351 35.770580,97.331993 
	C36.020462,96.025482 36.094181,95.499840 36.167900,94.974190 
z"/>
<path fill="#B90174" opacity="1.000000" stroke="none" 
	d="
M41.759010,170.991943 
	C39.989494,172.919769 38.219975,174.847595 36.135315,176.911102 
	C35.684509,169.365875 35.548847,161.684998 35.854454,153.497421 
	C38.137756,152.671402 39.979782,152.352081 41.872795,152.472961 
	C41.885731,155.277710 41.847679,157.642288 41.637634,160.123215 
	C41.262409,160.438248 41.125515,160.675247 41.115570,161.154037 
	C41.300758,161.624741 41.494717,161.824631 41.824219,162.405548 
	C41.846592,165.566574 41.802803,168.279266 41.759010,170.991943 
z"/>
<path fill="#C7046C" opacity="1.000000" stroke="none" 
	d="
M103.986160,67.049675 
	C111.347961,67.000725 118.709763,66.951767 126.528152,67.356430 
	C126.652855,69.497131 126.320969,71.184212 125.526619,72.946991 
	C116.702278,72.974846 108.340401,72.927002 100.020996,72.551216 
	C101.371025,70.498741 102.678589,68.774208 103.986160,67.049675 
z"/>
<path fill="#9C0590" opacity="1.000000" stroke="none" 
	d="
M84.997627,179.972122 
	C84.668892,181.667374 84.340149,183.362625 84.000732,185.428192 
	C79.283516,185.855789 74.576965,185.913086 69.320557,185.755020 
	C68.450447,185.371964 68.210358,185.466660 68.050415,185.823746 
	C66.950264,185.871094 65.850105,185.918442 64.258026,185.745132 
	C63.452900,185.360703 63.213379,185.450836 63.047535,185.794922 
	C61.963211,185.854874 60.878891,185.914810 59.394089,185.888550 
	C59.321686,184.108582 59.649757,182.414810 60.446381,180.267029 
	C68.942497,179.866058 76.970062,179.919098 84.997627,179.972122 
z"/>
<path fill="#DF0353" opacity="1.000000" stroke="none" 
	d="
M58.982300,72.881195 
	C60.297153,71.161476 61.612007,69.441750 62.963379,67.393005 
	C70.357353,67.007278 77.714813,66.950569 85.528404,67.351433 
	C85.653366,69.496384 85.322197,71.183754 84.528755,72.949348 
	C75.705086,72.978775 67.343689,72.929985 58.982300,72.881195 
z"/>
<path fill="#7302BD" opacity="1.000000" stroke="none" 
	d="
M145.049896,185.819794 
	C139.345490,185.865326 133.641068,185.910873 127.480087,185.526031 
	C127.681564,183.390076 128.339615,181.684509 129.462372,179.910187 
	C137.619492,179.884399 145.311874,179.927353 152.971619,180.307709 
	C151.618500,182.100647 150.298019,183.556168 148.626190,185.009552 
	C147.199875,185.278198 146.124893,185.548981 145.049896,185.819794 
z"/>
<path fill="#89039F" opacity="1.000000" stroke="none" 
	d="
M215.359070,70.460907 
	C213.837585,71.555801 212.133362,72.323738 209.591949,73.118210 
	C203.835342,73.062477 198.915924,72.980217 193.832474,72.605194 
	C192.783310,70.561249 191.898163,68.810066 191.013031,67.058884 
	C196.605026,66.992973 202.223038,66.587784 207.777344,67.013557 
	C210.308533,67.207588 212.713898,69.042999 215.359070,70.460907 
z"/>
<path fill="#A30152" opacity="1.000000" stroke="none" 
	d="
M41.821808,152.032761 
	C39.979782,152.352081 38.137756,152.671402 35.962059,153.050156 
	C35.520039,147.715775 35.411686,142.321960 35.675125,136.623901 
	C37.973125,134.528152 39.899326,132.736664 41.907028,131.412064 
	C41.932961,138.596893 41.877384,145.314819 41.821808,152.032761 
z"/>
<path fill="#D4005C" opacity="1.000000" stroke="none" 
	d="
M41.825531,130.945175 
	C39.899326,132.736664 37.973125,134.528152 35.828285,136.185150 
	C35.568249,129.660385 35.526852,123.270119 35.631500,116.431091 
	C37.526985,116.318802 39.276421,116.655266 41.464447,117.360001 
	C41.880585,118.484123 41.858131,119.239967 41.648323,120.157021 
	C41.573399,120.882469 41.685829,121.446716 41.845417,122.456528 
	C41.870228,125.583115 41.847878,128.264145 41.825531,130.945175 
z"/>
<path fill="#9C0590" opacity="1.000000" stroke="none" 
	d="
M190.549103,66.977417 
	C191.898163,68.810066 192.783310,70.561249 193.368439,72.673874 
	C185.710815,72.984543 178.353195,72.933769 170.995605,72.883003 
	C171.326660,71.189507 171.657730,69.496010 171.996140,67.429092 
	C178.030716,67.002434 184.057953,66.949196 190.549103,66.977417 
z"/>
<path fill="#7903A6" opacity="1.000000" stroke="none" 
	d="
M128.997650,179.978928 
	C128.339615,181.684509 127.681564,183.390076 127.019257,185.445847 
	C121.325775,185.860306 115.636559,185.924561 109.490173,185.893982 
	C110.335823,184.073090 111.638657,182.347015 113.434784,180.216492 
	C118.951271,179.867691 123.974457,179.923309 128.997650,179.978928 
z"/>
<path fill="#D4005C" opacity="1.000000" stroke="none" 
	d="
M84.991028,72.871132 
	C85.322197,71.183754 85.653366,69.496384 85.990234,67.436722 
	C91.685349,67.005859 97.374763,66.947281 103.525177,66.969193 
	C102.678589,68.774208 101.371025,70.498741 99.562653,72.628510 
	C94.371574,72.979538 89.681297,72.925331 84.991028,72.871132 
z"/>
<path fill="#B90174" opacity="1.000000" stroke="none" 
	d="
M125.989090,72.871284 
	C126.320969,71.184212 126.652855,69.497131 126.990585,67.437965 
	C132.356461,67.007187 137.716476,66.948502 143.539581,66.964951 
	C142.772781,68.804634 141.542923,70.569183 139.693390,72.686096 
	C134.712173,72.982727 130.350632,72.927010 125.989090,72.871284 
z"/>
<path fill="#6603B7" opacity="1.000000" stroke="none" 
	d="
M148.977539,185.011688 
	C150.298019,183.556168 151.618500,182.100647 153.426178,180.227127 
	C157.605789,179.862015 161.298172,179.914886 164.990570,179.967758 
	C163.971786,181.614212 162.952988,183.260666 161.846954,185.312714 
	C157.798782,185.809616 153.837860,185.900925 149.430145,185.703796 
	C148.983368,185.415359 148.977539,185.011703 148.977539,185.011688 
z"/>
<path fill="#7903A6" opacity="1.000000" stroke="none" 
	d="
M148.626205,185.009552 
	C148.977539,185.011703 148.983368,185.415359 148.979233,185.616974 
	C147.923157,185.885086 146.871231,185.951569 145.434601,185.918915 
	C146.124893,185.548981 147.199875,185.278198 148.626205,185.009552 
z"/>
<path fill="#A30152" opacity="1.000000" stroke="none" 
	d="
M36.034973,94.930252 
	C36.094181,95.499840 36.020462,96.025482 35.831238,96.933640 
	C35.580746,96.696198 35.445763,96.076256 35.466518,95.165665 
	C35.622257,94.875008 35.902039,94.886322 36.034973,94.930252 
z"/>
<path fill="#A30152" opacity="1.000000" stroke="none" 
	d="
M35.577782,74.973175 
	C35.897530,75.054619 35.933411,75.320862 35.727184,75.779732 
	C35.336136,75.734100 35.272415,75.462639 35.577782,74.973175 
z"/>
<path fill="#A80180" opacity="1.000000" stroke="none" 
	d="
M63.272236,185.854340 
	C63.213379,185.450836 63.452900,185.360703 63.853512,185.650284 
	C63.940929,185.776077 63.496937,185.913773 63.272236,185.854340 
z"/>
<path fill="#89039F" opacity="1.000000" stroke="none" 
	d="
M68.275848,185.876114 
	C68.210358,185.466660 68.450447,185.371964 68.858070,185.668945 
	C68.945450,185.798218 68.501282,185.928482 68.275848,185.876114 
z"/>
<path fill="#3E0291" opacity="1.000000" stroke="none" 
	d="
M217.460297,176.608963 
	C217.319901,176.693405 217.184601,176.759201 217.075378,176.729401 
	C216.967499,176.699966 216.885986,176.573914 216.792877,176.490234 
	C216.899887,176.426270 217.006897,176.362289 217.299561,176.360809 
	C217.485199,176.423294 217.476791,176.548462 217.460297,176.608963 
z"/>
<path fill="#3E0291" opacity="1.000000" stroke="none" 
	d="
M216.974442,157.081635 
	C216.939575,156.765518 217.082367,156.506699 217.397919,156.104919 
	C217.611557,156.162430 217.663055,156.368759 217.601624,156.873932 
	C217.488724,157.172791 217.141464,157.133087 216.974442,157.081635 
z"/>
<path fill="#3E0291" opacity="1.000000" stroke="none" 
	d="
M217.621704,136.766479 
	C217.230286,136.805161 217.157455,136.519699 217.421570,136.066986 
	C217.600983,136.136795 217.661591,136.317673 217.621704,136.766479 
z"/>
<path fill="#020202" opacity="1.000000" stroke="none" 
	d="
M749.474365,105.153748 
	C760.535706,102.864510 771.090027,102.991035 781.255920,107.173157 
	C792.545959,111.817772 798.210449,122.520668 793.783325,132.321609 
	C791.805298,136.700745 787.974976,141.290451 783.783386,143.431061 
	C769.813843,150.565170 755.221069,150.293304 741.007874,143.653412 
	C735.377136,141.022903 731.340210,136.461411 730.095093,130.157104 
	C728.538635,122.276848 730.874451,115.477402 737.489746,110.845665 
	C740.956360,108.418480 745.183472,107.077454 749.474365,105.153748 
z"/>
<path fill="#030303" opacity="1.000000" stroke="none" 
	d="
M526.094604,110.867340 
	C537.073181,122.458580 534.838562,137.972229 520.859436,144.712708 
	C507.255127,151.272491 493.081482,151.085983 479.405243,144.598892 
	C471.998932,141.085831 467.679260,134.905212 467.574524,126.353432 
	C467.472717,118.042961 471.513428,112.120193 478.459137,108.002693 
	C491.591644,100.217613 513.521362,101.462601 526.094604,110.867340 
z"/>
<path fill="#030003" opacity="1.000000" stroke="none" 
	d="
M165.455948,179.898346 
	C161.298172,179.914886 157.605789,179.862015 153.458832,179.889725 
	C145.311874,179.927353 137.619492,179.884399 129.462372,179.910187 
	C123.974457,179.923309 118.951271,179.867691 113.465469,179.880112 
	C103.977127,179.905701 94.951393,179.863235 85.461639,179.896454 
	C76.970062,179.919098 68.942497,179.866058 60.449654,179.890167 
	C56.668457,179.902344 53.352718,179.795013 50.036583,179.780838 
	C42.071316,179.746811 42.071239,179.764450 41.828651,171.421936 
	C41.802803,168.279266 41.846592,165.566574 41.894882,162.175995 
	C41.899387,161.498093 41.835388,161.021637 41.881733,160.766602 
	C41.888592,160.343323 41.849110,160.175079 41.809628,160.006851 
	C41.847679,157.642288 41.885731,155.277710 41.872795,152.472961 
	C41.877384,145.314819 41.932961,138.596893 41.907032,131.412064 
	C41.847878,128.264145 41.870228,125.583115 41.940605,122.126373 
	C41.937645,120.899040 41.886662,120.447433 41.835678,119.995819 
	C41.858131,119.239967 41.880585,118.484123 41.820911,117.358231 
	C41.798496,108.294518 41.858204,99.600838 41.836510,90.442764 
	C41.795216,87.604271 41.835323,85.230186 41.892731,82.091934 
	C41.860813,80.884529 41.811592,80.441284 41.762371,79.998039 
	C42.212204,73.089302 42.212212,73.091667 49.238171,73.072708 
	C52.179897,73.064774 55.121593,73.044411 58.522797,72.955444 
	C67.343689,72.929985 75.705086,72.978775 84.528755,72.949348 
	C89.681297,72.925331 94.371574,72.979538 99.520187,72.956451 
	C108.340401,72.927002 116.702278,72.974846 125.526611,72.946991 
	C130.350632,72.927010 134.712173,72.982727 139.533875,72.971039 
	C150.019287,72.947670 160.044540,72.991730 170.532684,72.959396 
	C178.353195,72.933769 185.710815,72.984543 193.532455,72.966644 
	C198.915924,72.980217 203.835342,73.062477 209.191528,73.174194 
	C210.159424,76.365105 210.904724,79.509132 211.163864,82.692726 
	C211.444550,86.141304 211.272034,89.626770 211.401611,93.554855 
	C211.436951,102.666931 211.367889,111.320312 211.273376,120.721878 
	C211.313675,121.659698 211.379410,121.849327 211.445145,122.038948 
	C211.398544,124.715424 211.351959,127.391899 211.275574,130.786224 
	C211.310715,131.682800 211.375610,131.861511 211.440491,132.040222 
	C211.387939,141.345612 211.335403,150.650986 211.250946,160.717667 
	C211.283279,161.678391 211.347519,161.877823 211.411758,162.077240 
	C211.373886,164.733658 211.336014,167.390060 211.259964,170.774170 
	C211.285126,171.690262 211.348465,171.878693 211.411819,172.067139 
	C211.006165,179.756165 211.006149,179.751785 203.425232,179.774902 
	C200.264008,179.784546 197.102844,179.817291 193.482330,179.915817 
	C183.989120,179.937729 174.955231,179.883347 165.455948,179.898346 
M177.661316,98.144104 
	C178.107895,98.107903 178.554459,98.071709 179.929245,98.169701 
	C184.729767,98.184723 189.550201,98.449501 194.319168,98.069038 
	C195.833344,97.948235 197.210373,96.108475 198.650162,95.055336 
	C197.228378,94.026344 195.838715,92.166771 194.379333,92.110336 
	C187.608475,91.848534 180.818268,92.086739 173.105621,91.995728 
	C168.067688,92.055748 163.029739,92.115768 157.066238,92.026619 
	C148.728287,92.081200 140.390350,92.135788 131.201752,92.027863 
	C130.380951,92.002975 129.430191,91.697899 128.764236,92.006821 
	C126.921837,92.861519 125.198280,93.972404 123.427742,94.982010 
	C125.161156,96.059113 126.786987,97.735382 128.653610,98.070526 
	C131.340668,98.552986 134.202850,98.060196 137.913055,98.165604 
	C143.608734,98.118828 149.304428,98.072044 155.927551,98.172752 
	C162.618881,98.109749 169.310211,98.046745 176.503525,98.091866 
	C176.670456,98.054001 176.837372,98.016144 177.661316,98.144104 
M186.302887,138.585022 
	C188.410706,140.433487 190.353363,142.540894 192.689667,144.031174 
	C194.044434,144.895370 196.032181,144.767242 197.735092,145.085663 
	C197.677338,143.452820 198.267883,141.257355 197.434784,140.297409 
	C195.318512,137.858871 192.564774,135.973587 189.603317,133.336914 
	C184.734680,132.199890 179.866043,131.062851 174.126450,129.779556 
	C165.277634,129.860214 158.003540,133.233658 152.880798,140.507095 
	C152.143402,141.554092 152.945312,143.685257 153.034851,145.314697 
	C154.615036,144.957260 156.873322,145.142242 157.664215,144.153473 
	C162.429520,138.195938 168.755600,136.064285 176.807861,135.967438 
	C179.829254,136.667374 182.850647,137.367310 186.302887,138.585022 
M141.922821,120.075760 
	C147.606827,120.025826 153.290848,119.975891 159.900192,120.086456 
	C164.944229,120.024055 169.988266,119.961647 175.953995,120.057030 
	C182.080261,120.074455 188.216797,120.288269 194.325439,119.968613 
	C195.817322,119.890549 197.217697,118.063599 198.660141,117.040756 
	C197.241821,115.976555 195.881454,114.103905 194.394470,113.997292 
	C189.624802,113.655289 184.808304,113.966507 179.082443,113.862274 
	C172.719940,113.917191 166.357452,113.972115 159.069061,113.884766 
	C153.378845,113.933601 147.688614,113.982430 141.072113,113.890160 
	C136.574692,113.879913 132.051514,113.595734 127.594414,114.014542 
	C126.122131,114.152893 124.820267,116.104904 123.440483,117.227646 
	C124.798424,118.185814 126.106491,119.870331 127.523537,119.967636 
	C131.992325,120.274498 136.501984,119.986183 141.922821,120.075760 
M81.184555,89.027977 
	C72.665947,90.141312 67.833534,95.277603 66.970985,104.758812 
	C67.963211,113.147850 71.603676,117.607918 78.882431,119.211426 
	C78.882431,119.211426 78.830185,119.135735 79.013435,119.596687 
	C79.013435,119.596687 79.447891,119.834160 79.447891,119.834160 
	C79.447891,119.834160 79.942551,119.813683 80.792336,120.023041 
	C82.110245,120.024994 83.458626,120.210472 84.740860,119.997559 
	C90.733185,119.002602 95.141533,115.771820 97.244972,110.032104 
	C99.071846,105.047066 99.367386,100.069588 94.495819,95.527321 
	C91.611397,90.867683 87.620750,88.373795 81.184555,89.027977 
M104.001656,133.016769 
	C104.001656,133.016769 103.891022,133.008698 103.695793,132.560776 
	C103.494766,132.286758 103.230461,132.104538 102.591110,131.431152 
	C97.092247,126.309624 90.702347,123.343010 82.262230,123.210754 
	C64.326614,124.307426 52.625027,138.170471 54.353909,156.773010 
	C54.128170,165.263245 55.786625,167.216751 63.934528,167.107407 
	C71.953308,167.050919 79.972084,166.994431 88.915459,167.109909 
	C91.247032,167.126724 93.580193,167.093765 95.909912,167.168457 
	C110.820740,167.646561 111.719856,166.780426 110.860649,150.146835 
	C110.421776,143.726837 108.315727,137.979645 104.001656,133.016769 
M178.409210,142.422058 
	C171.303543,141.094696 165.612457,143.630386 161.406616,149.226547 
	C160.514999,150.412888 161.095291,152.705429 160.997421,154.488312 
	C162.703339,154.083252 165.051559,154.243179 165.996567,153.168839 
	C169.015854,149.736267 172.513229,148.176941 177.673553,148.931839 
	C180.024261,150.572662 182.258392,152.433472 184.772598,153.765762 
	C186.122086,154.480850 187.952881,154.287628 189.566483,154.504257 
	C189.618500,153.031662 190.305313,150.783737 189.614639,150.218246 
	C186.307220,147.510315 182.626785,145.257996 178.409210,142.422058 
M123.742233,162.079773 
	C124.339752,162.634735 124.926697,163.659683 125.536385,163.673401 
	C133.309692,163.848358 141.088593,163.982056 148.858887,163.806885 
	C149.775482,163.786224 151.566544,161.560135 151.343643,160.897415 
	C150.935150,159.682877 149.355316,158.065536 148.213287,158.024506 
	C141.098846,157.768845 133.963318,157.745926 126.853485,158.063919 
	C125.663239,158.117157 124.564232,160.210526 123.742233,162.079773 
M136.264618,142.040924 
	C138.614319,141.842056 141.898239,142.803085 141.934906,139.001038 
	C141.972229,135.131363 138.651276,136.051025 136.320221,135.973648 
	C133.159348,135.868713 129.953430,135.692551 126.845612,136.119858 
	C125.602715,136.290741 124.569550,137.986938 123.440903,138.988815 
	C124.573448,139.991913 125.597725,141.655670 126.860748,141.862671 
	C129.620605,142.314987 132.501740,142.027161 136.264618,142.040924 
M170.422638,159.422699 
	C171.427139,163.381042 173.822693,165.204559 177.619583,163.151291 
	C178.824402,162.499756 179.979156,159.988342 179.648697,158.721405 
	C179.253586,157.206573 176.992249,154.891388 175.982101,155.097107 
	C173.994843,155.501892 172.313461,157.408447 170.422638,159.422699 
z"/>
<path fill="#3E0291" opacity="1.000000" stroke="none" 
	d="
M211.575775,161.934692 
	C211.347519,161.877823 211.283279,161.678391 211.299057,161.174805 
	C211.379089,160.870651 211.752075,160.916626 211.934921,160.963379 
	C212.025604,161.287155 211.899612,161.547836 211.575775,161.934692 
z"/>
<path fill="#3E0291" opacity="1.000000" stroke="none" 
	d="
M211.537598,171.946930 
	C211.348465,171.878693 211.285126,171.690262 211.303757,171.215012 
	C211.478256,171.227692 211.570816,171.527191 211.537598,171.946930 
z"/>
<path fill="#DF0353" opacity="1.000000" stroke="none" 
	d="
M41.524986,80.020119 
	C41.811592,80.441284 41.860813,80.884529 41.817574,81.652222 
	C41.579277,81.331848 41.433441,80.687019 41.524986,80.020119 
z"/>
<path fill="#3E0291" opacity="1.000000" stroke="none" 
	d="
M211.598877,121.909012 
	C211.379410,121.849327 211.313675,121.659698 211.326721,121.179482 
	C211.405518,120.888901 211.764908,120.942009 211.937897,121.000565 
	C212.022095,121.314362 211.902679,121.554352 211.598877,121.909012 
z"/>
<path fill="#3E0291" opacity="1.000000" stroke="none" 
	d="
M211.558990,131.924164 
	C211.375610,131.861511 211.310715,131.682800 211.323975,131.229919 
	C211.715271,131.169250 211.807053,131.453354 211.558990,131.924164 
z"/>
<path fill="#A80180" opacity="1.000000" stroke="none" 
	d="
M41.835388,161.021637 
	C41.835388,161.021637 41.899387,161.498093 41.828728,161.727646 
	C41.494717,161.824631 41.300758,161.624741 41.310074,161.174957 
	C41.443951,160.992416 41.835388,161.021637 41.835388,161.021637 
z"/>
<path fill="#A30152" opacity="1.000000" stroke="none" 
	d="
M41.881733,160.766602 
	C41.835388,161.021637 41.443951,160.992416 41.249451,160.971497 
	C41.125515,160.675247 41.262409,160.438248 41.637634,160.123215 
	C41.849110,160.175079 41.888592,160.343323 41.881733,160.766602 
z"/>
<path fill="#A30152" opacity="1.000000" stroke="none" 
	d="
M41.648319,120.157021 
	C41.886662,120.447433 41.937645,120.899040 41.893448,121.680809 
	C41.685829,121.446716 41.573399,120.882469 41.648319,120.157021 
z"/>
<path fill="#B90174" opacity="1.000000" stroke="none" 
	d="
M54.625465,155.952408 
	C52.625027,138.170471 64.326614,124.307426 82.843880,123.543274 
	C86.280685,125.982681 84.067825,127.701714 82.577980,129.595734 
	C69.316292,130.567566 62.129078,137.999847 60.281017,152.050781 
	C58.190800,153.390518 56.408131,154.671463 54.625465,155.952408 
z"/>
<path fill="#930195" opacity="1.000000" stroke="none" 
	d="
M110.678078,150.923492 
	C111.719856,166.780426 110.820740,167.646561 95.909912,167.168457 
	C93.580193,167.093765 91.247032,167.126724 88.490715,166.694336 
	C89.376053,164.548294 90.686142,162.817856 92.456116,161.016968 
	C96.664001,160.946518 100.412003,160.946518 104.497147,160.946518 
	C104.497147,156.517929 104.497147,152.759369 104.811188,148.934784 
	C107.998344,146.791275 109.070534,149.580780 110.678078,150.923492 
z"/>
<path fill="#B90174" opacity="1.000000" stroke="none" 
	d="
M95.005127,95.956551 
	C99.367386,100.069588 99.071846,105.047066 97.244972,110.032104 
	C95.141533,115.771820 90.733185,119.002602 84.740860,119.997559 
	C83.458626,120.210472 82.110245,120.024994 80.232758,119.734528 
	C79.432808,119.232353 79.151802,119.128922 78.830185,119.135735 
	C78.830185,119.135735 78.882431,119.211426 78.872299,118.829697 
	C79.093712,116.870224 79.325249,115.292465 79.927917,113.707260 
	C89.568062,113.931007 93.476746,108.988434 91.474045,99.950806 
	C92.874298,98.591698 93.939713,97.274124 95.005127,95.956551 
z"/>
<path fill="#7903A6" opacity="1.000000" stroke="none" 
	d="
M176.014267,135.792755 
	C168.755600,136.064285 162.429520,138.195938 157.664215,144.153473 
	C156.873322,145.142242 154.615036,144.957260 153.034851,145.314697 
	C152.945312,143.685257 152.143402,141.554092 152.880798,140.507095 
	C158.003540,133.233658 165.277634,129.860214 174.561829,130.236084 
	C175.336243,132.392670 175.675247,134.092712 176.014267,135.792755 
z"/>
<path fill="#7903A6" opacity="1.000000" stroke="none" 
	d="
M123.582657,161.720490 
	C124.564232,160.210526 125.663239,158.117157 126.853485,158.063919 
	C133.963318,157.745926 141.098846,157.768845 148.213287,158.024506 
	C149.355316,158.065536 150.935150,159.682877 151.343643,160.897415 
	C151.566544,161.560135 149.775482,163.786224 148.858887,163.806885 
	C141.088593,163.982056 133.309692,163.848358 125.536385,163.673401 
	C124.926697,163.659683 124.339752,162.634735 123.582657,161.720490 
z"/>
<path fill="#A7038D" opacity="1.000000" stroke="none" 
	d="
M91.996231,161.087418 
	C90.686142,162.817856 89.376053,164.548294 88.028412,166.608353 
	C79.972084,166.994431 71.953308,167.050919 63.473267,166.677856 
	C63.678162,164.524155 64.344315,162.800018 65.474060,161.008255 
	C74.623840,160.989578 83.310036,161.038498 91.996231,161.087418 
z"/>
<path fill="#A7038D" opacity="1.000000" stroke="none" 
	d="
M155.000107,98.025261 
	C149.304428,98.072044 143.608734,98.118828 137.311249,97.784622 
	C135.157089,95.665894 133.604736,93.928131 132.052399,92.190376 
	C140.390350,92.135788 148.728287,92.081200 157.526062,92.444618 
	C156.990616,94.583496 155.995361,96.304382 155.000107,98.025261 
z"/>
<path fill="#89039F" opacity="1.000000" stroke="none" 
	d="
M174.034988,92.145920 
	C180.818268,92.086739 187.608475,91.848534 194.379333,92.110336 
	C195.838715,92.166771 197.228378,94.026344 198.650162,95.055336 
	C197.210373,96.108475 195.833344,97.948235 194.319168,98.069038 
	C189.550201,98.449501 184.729767,98.184723 179.301102,97.853943 
	C178.120422,97.353889 177.567902,97.169601 176.881927,96.694687 
	C175.843994,94.984680 174.939484,93.565300 174.034988,92.145920 
z"/>
<path fill="#7200B3" opacity="1.000000" stroke="none" 
	d="
M176.991028,148.613632 
	C172.513229,148.176941 169.015854,149.736267 165.996567,153.168839 
	C165.051559,154.243179 162.703339,154.083252 160.997421,154.488312 
	C161.095291,152.705429 160.514999,150.412888 161.406616,149.226547 
	C165.612457,143.630386 171.303543,141.094696 178.604187,142.954865 
	C178.196472,145.196320 177.593750,146.904968 176.991028,148.613632 
z"/>
<path fill="#A80180" opacity="1.000000" stroke="none" 
	d="
M82.994507,129.507950 
	C84.067825,127.701714 86.280685,125.982681 83.251617,123.619141 
	C90.702347,123.343010 97.092247,126.309624 102.492081,131.930038 
	C101.147362,133.672318 99.901672,134.915710 98.355362,136.023544 
	C93.034653,133.761307 88.014580,131.634628 82.994507,129.507950 
z"/>
<path fill="#7200B3" opacity="1.000000" stroke="none" 
	d="
M180.009872,114.025681 
	C184.808304,113.966507 189.624802,113.655289 194.394470,113.997292 
	C195.881454,114.103905 197.241821,115.976555 198.660141,117.040756 
	C197.217697,118.063599 195.817322,119.890549 194.325439,119.968613 
	C188.216797,120.288269 182.080261,120.074455 175.641418,119.696236 
	C176.889206,117.565521 178.449539,115.795601 180.009872,114.025681 
z"/>
<path fill="#C7046C" opacity="1.000000" stroke="none" 
	d="
M79.556786,113.714714 
	C79.325249,115.292465 79.093712,116.870224 78.830391,118.848625 
	C71.603676,117.607918 67.963211,113.147850 67.336708,104.204926 
	C70.191650,101.835571 72.680862,100.020111 75.061676,98.553398 
	C71.749252,105.924530 72.705254,109.000626 79.556786,113.714714 
z"/>
<path fill="#89039F" opacity="1.000000" stroke="none" 
	d="
M179.546158,113.943977 
	C178.449539,115.795601 176.889206,117.565521 175.180573,119.617340 
	C169.988266,119.961647 164.944229,120.024055 159.308121,119.741669 
	C159.142349,117.606934 159.568649,115.816986 159.994949,114.027039 
	C166.357452,113.972115 172.719940,113.917191 179.546158,113.943977 
z"/>
<path fill="#930195" opacity="1.000000" stroke="none" 
	d="
M173.570312,92.070824 
	C174.939484,93.565300 175.843994,94.984680 176.873566,96.703308 
	C176.998611,97.002548 176.985138,97.020126 176.770477,97.122597 
	C176.289581,97.418404 176.104828,97.671295 176.001541,97.983742 
	C169.310211,98.046745 162.618881,98.109749 155.463837,98.099007 
	C155.995361,96.304382 156.990616,94.583496 157.988831,92.519203 
	C163.029739,92.115768 168.067688,92.055748 173.570312,92.070824 
z"/>
<path fill="#89039F" opacity="1.000000" stroke="none" 
	d="
M135.798981,142.041306 
	C132.501740,142.027161 129.620605,142.314987 126.860748,141.862671 
	C125.597725,141.655670 124.573448,139.991913 123.440903,138.988831 
	C124.569550,137.986938 125.602715,136.290741 126.845612,136.119858 
	C129.953430,135.692551 133.159348,135.868713 136.320221,135.973648 
	C138.651276,136.051025 141.972229,135.131363 141.934906,139.001038 
	C141.898239,142.803085 138.614319,141.842056 135.798981,142.041306 
z"/>
<path fill="#9C0590" opacity="1.000000" stroke="none" 
	d="
M98.655991,136.159103 
	C99.901672,134.915710 101.147362,133.672318 102.647964,132.221512 
	C103.230461,132.104538 103.494766,132.286758 103.674316,132.850189 
	C103.765976,133.135513 103.879120,133.131409 103.992256,133.127304 
	C108.315727,137.979645 110.421776,143.726837 110.769363,150.535156 
	C109.070534,149.580780 107.998344,146.791275 104.679863,148.554810 
	C102.374992,144.213593 100.515488,140.186356 98.655991,136.159103 
z"/>
<path fill="#C7046C" opacity="1.000000" stroke="none" 
	d="
M94.750473,95.741936 
	C93.939713,97.274124 92.874298,98.591698 91.236481,99.692856 
	C85.717567,94.302536 83.065872,93.880745 76.184502,96.829559 
	C78.088287,94.029823 80.029274,91.579674 81.970268,89.129532 
	C87.620750,88.373795 91.611397,90.867683 94.750473,95.741936 
z"/>
<path fill="#9C0590" opacity="1.000000" stroke="none" 
	d="
M140.995834,119.928192 
	C136.501984,119.986183 131.992325,120.274498 127.523537,119.967636 
	C126.106491,119.870331 124.798424,118.185814 123.440483,117.227646 
	C124.820267,116.104904 126.122131,114.152893 127.594414,114.014542 
	C132.051514,113.595734 136.574692,113.879913 141.529572,114.339149 
	C141.656631,116.501495 141.326233,118.214844 140.995834,119.928192 
z"/>
<path fill="#930195" opacity="1.000000" stroke="none" 
	d="
M141.459320,120.001984 
	C141.326233,118.214844 141.656631,116.501495 141.992706,114.409698 
	C147.688614,113.982430 153.378845,113.933601 159.532013,113.955902 
	C159.568649,115.816986 159.142349,117.606934 158.845459,119.661423 
	C153.290848,119.975891 147.606827,120.025826 141.459320,120.001984 
z"/>
<path fill="#A80180" opacity="1.000000" stroke="none" 
	d="
M65.010468,161.075867 
	C64.344315,162.800018 63.678162,164.524155 63.009514,166.606964 
	C55.786625,167.216751 54.128170,165.263245 54.489685,156.362701 
	C56.408131,154.671463 58.190800,153.390518 60.368187,152.495193 
	C61.742897,155.838394 58.133881,161.174515 65.010468,161.075867 
z"/>
<path fill="#6603B7" opacity="1.000000" stroke="none" 
	d="
M177.332291,148.772736 
	C177.593750,146.904968 178.196472,145.196320 178.939041,143.165710 
	C182.626785,145.257996 186.307220,147.510315 189.614639,150.218246 
	C190.305313,150.783737 189.618500,153.031662 189.566483,154.504272 
	C187.952881,154.287628 186.122086,154.480850 184.772598,153.765762 
	C182.258392,152.433472 180.024261,150.572662 177.332291,148.772736 
z"/>
<path fill="#7200B3" opacity="1.000000" stroke="none" 
	d="
M176.411072,135.880096 
	C175.675247,134.092712 175.336243,132.392670 174.997314,130.309219 
	C179.866043,131.062851 184.734680,132.199890 189.692810,133.905533 
	C188.478882,135.671844 187.175461,136.869537 185.872040,138.067245 
	C182.850647,137.367310 179.829254,136.667374 176.411072,135.880096 
z"/>
<path fill="#6603B7" opacity="1.000000" stroke="none" 
	d="
M186.087463,138.326141 
	C187.175461,136.869537 188.478882,135.671844 189.924271,134.170471 
	C192.564774,135.973587 195.318512,137.858871 197.434784,140.297409 
	C198.267883,141.257355 197.677338,143.452820 197.735092,145.085663 
	C196.032181,144.767242 194.044434,144.895370 192.689667,144.031174 
	C190.353363,142.540894 188.410706,140.433487 186.087463,138.326141 
z"/>
<path fill="#D4005C" opacity="1.000000" stroke="none" 
	d="
M81.577408,89.078751 
	C80.029274,91.579674 78.088287,94.029823 76.154121,96.819008 
	C76.160942,97.158051 76.159904,97.093735 75.902199,97.176453 
	C75.458206,97.556625 75.271919,97.854080 75.117081,98.148376 
	C75.148529,98.145210 75.170082,98.204643 75.170082,98.204643 
	C72.680862,100.020111 70.191650,101.835571 67.418289,103.806488 
	C67.833534,95.277603 72.665947,90.141312 81.577408,89.078751 
z"/>
<path fill="#6603B7" opacity="1.000000" stroke="none" 
	d="
M170.464081,159.058228 
	C172.313461,157.408447 173.994843,155.501892 175.982101,155.097107 
	C176.992249,154.891388 179.253586,157.206573 179.648697,158.721405 
	C179.979156,159.988342 178.824402,162.499756 177.619583,163.151291 
	C173.822693,165.204559 171.427139,163.381042 170.464081,159.058228 
z"/>
<path fill="#A80180" opacity="1.000000" stroke="none" 
	d="
M131.627075,92.109116 
	C133.604736,93.928131 135.157089,95.665894 136.849854,97.693649 
	C134.202850,98.060196 131.340668,98.552986 128.653610,98.070526 
	C126.786987,97.735382 125.161156,96.059113 123.427742,94.982010 
	C125.198280,93.972404 126.921837,92.861519 128.764236,92.006821 
	C129.430191,91.697899 130.380951,92.002975 131.627075,92.109116 
z"/>
<path fill="#930195" opacity="1.000000" stroke="none" 
	d="
M177.006989,96.993927 
	C177.567902,97.169601 178.120422,97.353889 178.837006,97.786842 
	C178.554459,98.071709 178.107895,98.107903 177.329681,97.821640 
	C176.998062,97.499168 176.985138,97.020126 176.985138,97.020126 
	C176.985138,97.020126 176.998611,97.002548 177.006989,96.993927 
z"/>
<path fill="#C7046C" opacity="1.000000" stroke="none" 
	d="
M78.921814,119.366211 
	C79.151802,119.128922 79.432808,119.232353 79.807869,119.629852 
	C79.942551,119.813683 79.447891,119.834160 79.447891,119.834160 
	C79.447891,119.834160 79.013435,119.596687 78.921814,119.366211 
z"/>
<path fill="#89039F" opacity="1.000000" stroke="none" 
	d="
M176.770477,97.122597 
	C176.985138,97.020126 176.998062,97.499168 177.001160,97.738724 
	C176.837372,98.016144 176.670456,98.054001 176.252533,98.037804 
	C176.104828,97.671295 176.289581,97.418404 176.770477,97.122597 
z"/>
<path fill="#030003" opacity="1.000000" stroke="none" 
	d="
M65.474060,161.008255 
	C58.133881,161.174515 61.742897,155.838394 60.675735,152.436371 
	C62.129078,137.999847 69.316292,130.567566 82.577980,129.595734 
	C88.014580,131.634628 93.034653,133.761307 98.355362,136.023544 
	C100.515488,140.186356 102.374992,144.213593 104.365822,148.620819 
	C104.497147,152.759369 104.497147,156.517929 104.497147,160.946518 
	C100.412003,160.946518 96.664001,160.946518 92.456116,161.016968 
	C83.310036,161.038498 74.623840,160.989578 65.474060,161.008255 
z"/>
<path fill="#030003" opacity="1.000000" stroke="none" 
	d="
M76.191322,97.168594 
	C83.065872,93.880745 85.717567,94.302536 90.901634,99.734383 
	C93.476746,108.988434 89.568062,113.931007 79.927917,113.707260 
	C72.705254,109.000626 71.749252,105.924530 75.061676,98.553398 
	C75.170082,98.204643 75.148529,98.145210 75.381485,98.075211 
	C75.796257,97.701378 75.978081,97.397560 76.159904,97.093735 
	C76.159904,97.093735 76.160942,97.158051 76.191322,97.168594 
z"/>
<path fill="#A80180" opacity="1.000000" stroke="none" 
	d="
M103.996956,133.072037 
	C103.879120,133.131409 103.765976,133.135513 103.771927,133.074158 
	C103.891022,133.008698 104.001656,133.016769 103.996956,133.072037 
z"/>
<path fill="#C7046C" opacity="1.000000" stroke="none" 
	d="
M75.902199,97.176453 
	C75.978081,97.397560 75.796257,97.701378 75.350037,98.078369 
	C75.271919,97.854080 75.458206,97.556625 75.902199,97.176453 
z"/>
</svg>