<svg xmlns="http://www.w3.org/2000/svg" width="375" viewBox="0 0 375 150" height="150" version="1.0"><defs><clipPath id="a"><path d="M 0 38.265625 L 96 38.265625 L 96 111.765625 L 0 111.765625 Z M 0 38.265625"/></clipPath></defs><g clip-path="url(#a)"><path fill="#FFF" d="M 29.695312 111.324219 C 26.109375 110.4375 24.707031 108.484375 23.351562 102.480469 C 22.042969 96.699219 21.320312 94.714844 19.757812 92.589844 C 18.503906 90.882812 16.875 90.117188 14.492188 90.117188 C 11.53125 90.117188 9.988281 89 8.976562 86.117188 C 7.890625 83.03125 7.691406 77.476562 8.570312 75.003906 C 9.140625 73.414062 10.609375 71.597656 12.191406 70.53125 C 12.984375 69.996094 15.796875 68.753906 18.894531 67.566406 C 24.816406 65.300781 28.804688 63.402344 32.769531 60.960938 C 37.902344 57.796875 43.765625 53.359375 47.40625 49.875 C 49.730469 47.652344 49.828125 47.507812 50.320312 45.625 C 50.796875 43.800781 51.449219 42.597656 52.519531 41.574219 C 53.308594 40.816406 53.59375 40.707031 54.992188 40.617188 C 57.601562 40.449219 59.234375 41.535156 61.503906 44.9375 C 64.75 49.804688 68.023438 59.160156 69.511719 67.820312 C 71.738281 80.765625 70.078125 93.492188 65.9375 95.214844 C 64.347656 95.878906 63.507812 95.636719 60.351562 93.601562 C 59.523438 93.066406 58.085938 92.339844 57.15625 91.984375 C 51.839844 89.957031 39.367188 87.898438 32.378906 87.890625 C 29.785156 87.890625 29.574219 87.925781 29.214844 88.4375 C 28.601562 89.308594 28.734375 91.25 29.566406 93.597656 C 29.972656 94.75 30.308594 95.949219 30.3125 96.261719 C 30.316406 96.992188 30.859375 98.035156 31.558594 98.664062 C 32.445312 99.46875 32.863281 100.488281 32.683594 101.429688 C 32.542969 102.171875 32.667969 102.464844 33.65625 103.777344 C 34.871094 105.390625 35.019531 106.085938 34.445312 107.492188 C 34.070312 108.410156 34.136719 108.777344 34.824219 109.660156 C 35.46875 110.492188 35.402344 111.144531 34.644531 111.429688 C 33.789062 111.753906 31.222656 111.699219 29.695312 111.324219 Z M 55.519531 86.339844 C 50.554688 76.433594 47.640625 61.152344 49.097656 52.625 L 49.257812 51.675781 L 47.289062 53.640625 C 44.546875 56.375 42.183594 58.058594 35.121094 62.289062 C 26.195312 67.640625 24.808594 69.160156 24.648438 73.769531 C 24.464844 78.992188 26.5 83.257812 29.921875 84.808594 C 31.023438 85.308594 31.824219 85.414062 36.152344 85.632812 C 38.882812 85.773438 42.402344 86.066406 43.96875 86.285156 C 47.363281 86.761719 52.554688 88.070312 55.144531 89.101562 C 56.167969 89.507812 57.070312 89.847656 57.148438 89.855469 C 57.226562 89.863281 56.496094 88.28125 55.519531 86.339844 Z M 57.253906 82.5625 C 57.84375 79.703125 58.003906 75.6875 57.636719 72.972656 C 56.9375 67.796875 54.597656 62.722656 52.007812 60.75 L 51.097656 60.0625 L 51.269531 61.648438 C 51.628906 64.953125 52.71875 71.539062 53.441406 74.757812 C 54.316406 78.660156 56.367188 85.039062 56.648438 84.746094 C 56.757812 84.632812 57.027344 83.652344 57.253906 82.5625 Z M 88.21875 91.171875 C 89.464844 88.089844 90.511719 84.054688 91.035156 80.304688 C 91.667969 75.753906 91.4375 67.128906 90.554688 62.550781 C 88.503906 51.878906 83.941406 43.65625 77.882812 39.707031 C 76.839844 39.027344 76.097656 38.429688 76.238281 38.386719 C 76.617188 38.257812 79.105469 39.242188 81.339844 40.402344 C 88.378906 44.050781 92.992188 50.078125 95.316406 58.65625 C 95.917969 60.871094 95.957031 61.363281 95.972656 67.078125 C 95.984375 72.550781 95.929688 73.417969 95.402344 75.871094 C 94.609375 79.582031 93.351562 83.265625 91.769531 86.527344 C 90.445312 89.257812 87.785156 93.585938 87.429688 93.585938 C 87.328125 93.585938 87.683594 92.5 88.21875 91.171875 Z M 80.867188 87.828125 C 84.710938 78.335938 84.199219 65.304688 79.605469 55.527344 C 77.703125 51.472656 75.410156 48.644531 72.441406 46.675781 C 71.648438 46.152344 71.046875 45.675781 71.105469 45.621094 C 71.292969 45.433594 73.316406 46.257812 75.582031 47.445312 C 79.488281 49.492188 82.839844 53.074219 84.925781 57.433594 C 86.546875 60.8125 86.972656 62.832031 87.109375 67.753906 C 87.289062 74.148438 86.355469 78.769531 83.816406 84.046875 C 82.675781 86.421875 80.550781 89.871094 80.234375 89.871094 C 80.128906 89.871094 80.414062 88.949219 80.867188 87.824219 Z M 6.933594 89.367188 C 1.917969 88.523438 0 86.503906 0 82.0625 C 0 79.515625 0.289062 78.378906 1.332031 76.835938 C 2.027344 75.800781 2.578125 75.40625 5.488281 73.839844 C 8.90625 72 9.890625 71.632812 9.15625 72.464844 C 7.867188 73.929688 7.230469 76.375 7.230469 79.835938 C 7.230469 83.828125 7.996094 86.226562 9.988281 88.484375 L 10.992188 89.621094 L 9.542969 89.59375 C 8.746094 89.578125 7.570312 89.476562 6.933594 89.367188 Z M 6.859375 86.960938 C 5.78125 84.175781 5.402344 82.183594 5.382812 79.15625 C 5.363281 76.058594 5.136719 75.335938 4.675781 76.878906 C 4.554688 77.28125 4.445312 78.722656 4.433594 80.085938 C 4.410156 82.25 4.507812 82.867188 5.207031 84.976562 C 5.875 86.992188 6.089844 87.394531 6.519531 87.394531 C 6.902344 87.394531 6.988281 87.285156 6.859375 86.960938 Z M 3.449219 84.605469 C 2.773438 82.523438 2.714844 82.082031 2.8125 79.796875 C 2.902344 77.707031 2.859375 77.304688 2.570312 77.417969 C 2 77.636719 1.761719 78.632812 1.769531 80.78125 C 1.773438 82.339844 1.910156 83.140625 2.363281 84.238281 C 3.726562 87.546875 4.488281 87.804688 3.449219 84.605469 Z M 73.933594 85.84375 C 75.324219 82.441406 75.800781 79.898438 75.933594 75.210938 C 76.03125 71.792969 75.96875 70.265625 75.636719 68.273438 C 75.121094 65.128906 73.84375 61.21875 72.488281 58.613281 C 71.355469 56.449219 68.652344 53.359375 67.207031 52.582031 C 66.71875 52.316406 66.316406 52.007812 66.316406 51.894531 C 66.316406 51.300781 70.519531 53.367188 72.421875 54.894531 C 76.507812 58.183594 78.835938 63.039062 79.148438 68.9375 C 79.394531 73.617188 78.535156 78.082031 76.589844 82.191406 C 75.457031 84.585938 73.777344 87.386719 73.472656 87.390625 C 73.378906 87.390625 73.585938 86.695312 73.933594 85.84375 Z M 73.933594 85.84375"/></g><g fill="#FFF"><g><g><path d="M 14.21875 0 L 0.640625 -36.90625 L 10.359375 -36.90625 L 19.71875 -7.671875 L 29.15625 -36.90625 L 38.03125 -36.90625 L 24.4375 0 Z M 14.21875 0" transform="translate(113.129 94.297)"/></g></g></g><g fill="#FFF"><g><g><path d="M 4.296875 0 L 4.296875 -36.90625 L 13.734375 -36.90625 L 13.734375 0 Z M 4.296875 -42.046875 L 4.296875 -51.40625 L 13.734375 -51.40625 L 13.734375 -42.046875 Z M 4.296875 -42.046875" transform="translate(151.788 94.297)"/></g></g></g><g fill="#FFF"><g><g><path d="M 26.265625 -28.734375 C 23.398438 -28.679688 20.84375 -28.128906 18.59375 -27.078125 C 16.34375 -26.023438 14.722656 -24.441406 13.734375 -22.328125 L 13.734375 0 L 4.296875 0 L 4.296875 -36.90625 L 12.953125 -36.90625 L 12.953125 -29.015625 C 13.609375 -30.285156 14.382812 -31.421875 15.28125 -32.421875 C 16.175781 -33.429688 17.140625 -34.3125 18.171875 -35.0625 C 19.203125 -35.820312 20.242188 -36.398438 21.296875 -36.796875 C 22.359375 -37.191406 23.378906 -37.390625 24.359375 -37.390625 C 24.878906 -37.390625 25.269531 -37.390625 25.53125 -37.390625 C 25.789062 -37.390625 26.035156 -37.367188 26.265625 -37.328125 Z M 26.265625 -28.734375" transform="translate(169.745 94.297)"/></g></g></g><g fill="#FFF"><g><g><path d="M 14.359375 0.703125 C 12.578125 0.703125 10.910156 0.410156 9.359375 -0.171875 C 7.816406 -0.765625 6.476562 -1.585938 5.34375 -2.640625 C 4.21875 -3.691406 3.335938 -4.921875 2.703125 -6.328125 C 2.078125 -7.742188 1.765625 -9.296875 1.765625 -10.984375 C 1.765625 -12.722656 2.148438 -14.332031 2.921875 -15.8125 C 3.691406 -17.289062 4.769531 -18.546875 6.15625 -19.578125 C 7.539062 -20.609375 9.195312 -21.414062 11.125 -22 C 13.050781 -22.59375 15.164062 -22.890625 17.46875 -22.890625 C 19.101562 -22.890625 20.707031 -22.75 22.28125 -22.46875 C 23.851562 -22.1875 25.253906 -21.785156 26.484375 -21.265625 L 26.484375 -23.375 C 26.484375 -25.820312 25.789062 -27.703125 24.40625 -29.015625 C 23.019531 -30.328125 20.960938 -30.984375 18.234375 -30.984375 C 16.265625 -30.984375 14.335938 -30.628906 12.453125 -29.921875 C 10.578125 -29.222656 8.65625 -28.191406 6.6875 -26.828125 L 3.796875 -32.8125 C 8.546875 -35.957031 13.664062 -37.53125 19.15625 -37.53125 C 24.457031 -37.53125 28.578125 -36.226562 31.515625 -33.625 C 34.453125 -31.019531 35.921875 -27.253906 35.921875 -22.328125 L 35.921875 -10.84375 C 35.921875 -9.851562 36.09375 -9.144531 36.4375 -8.71875 C 36.789062 -8.300781 37.367188 -8.070312 38.171875 -8.03125 L 38.171875 0 C 36.578125 0.332031 35.191406 0.5 34.015625 0.5 C 32.234375 0.5 30.859375 0.0976562 29.890625 -0.703125 C 28.929688 -1.503906 28.332031 -2.5625 28.09375 -3.875 L 27.890625 -5.921875 C 26.242188 -3.753906 24.242188 -2.109375 21.890625 -0.984375 C 19.546875 0.140625 17.035156 0.703125 14.359375 0.703125 Z M 17.046875 -6.203125 C 18.640625 -6.203125 20.148438 -6.484375 21.578125 -7.046875 C 23.015625 -7.609375 24.128906 -8.359375 24.921875 -9.296875 C 25.960938 -10.097656 26.484375 -10.988281 26.484375 -11.96875 L 26.484375 -16.203125 C 25.347656 -16.617188 24.125 -16.957031 22.8125 -17.21875 C 21.5 -17.476562 20.234375 -17.609375 19.015625 -17.609375 C 16.578125 -17.609375 14.582031 -17.054688 13.03125 -15.953125 C 11.476562 -14.847656 10.703125 -13.453125 10.703125 -11.765625 C 10.703125 -10.160156 11.3125 -8.832031 12.53125 -7.78125 C 13.75 -6.726562 15.253906 -6.203125 17.046875 -6.203125 Z M 17.046875 -6.203125" transform="translate(196.997 94.297)"/></g></g></g><g fill="#FFF"><g><g><path d="M 4.21875 -51.40625 L 13.65625 -51.40625 L 13.65625 -11.828125 C 13.65625 -10.460938 13.984375 -9.40625 14.640625 -8.65625 C 15.304688 -7.90625 16.25 -7.53125 17.46875 -7.53125 C 18.03125 -7.53125 18.648438 -7.625 19.328125 -7.8125 C 20.015625 -8 20.660156 -8.234375 21.265625 -8.515625 L 22.53125 -1.34375 C 21.269531 -0.726562 19.789062 -0.257812 18.09375 0.0625 C 16.40625 0.394531 14.878906 0.5625 13.515625 0.5625 C 10.554688 0.5625 8.265625 -0.222656 6.640625 -1.796875 C 5.023438 -3.367188 4.21875 -5.609375 4.21875 -8.515625 Z M 4.21875 -51.40625" transform="translate(237.417 94.297)"/></g></g></g><g fill="#FFF"><g><g><path d="M 45.984375 0 L 45.984375 -33.09375 L 33.09375 -8.453125 L 27.8125 -8.453125 L 14.921875 -33.09375 L 14.921875 0 L 5.21875 0 L 5.21875 -50 L 15.640625 -50 L 30.421875 -21.546875 L 45.359375 -50 L 55.703125 -50 L 55.703125 0 Z M 45.984375 0" transform="translate(259.74 94.297)"/></g></g></g><g fill="#FFF"><g><g><path d="M 39.921875 -8.515625 L 39.921875 0 L 5.21875 0 L 5.21875 -50 L 39.296875 -50 L 39.296875 -41.484375 L 14.921875 -41.484375 L 14.921875 -29.4375 L 35.984375 -29.4375 L 35.984375 -21.546875 L 14.921875 -21.546875 L 14.921875 -8.515625 Z M 39.921875 -8.515625" transform="translate(320.65 94.297)"/></g></g></g><g fill="#FFF"><g><g><path d="M 2.703125 0.125 C 2.023438 0.125 1.472656 -0.0390625 1.046875 -0.375 C 0.617188 -0.707031 0.40625 -1.222656 0.40625 -1.921875 L 0.421875 -2.125 L 1.3125 -2.125 L 1.3125 -1.921875 C 1.3125 -1.515625 1.429688 -1.207031 1.671875 -1 C 1.921875 -0.789062 2.25 -0.6875 2.65625 -0.6875 C 3.113281 -0.6875 3.46875 -0.78125 3.71875 -0.96875 C 3.96875 -1.164062 4.09375 -1.445312 4.09375 -1.8125 C 4.09375 -2.0625 4.023438 -2.265625 3.890625 -2.421875 C 3.753906 -2.578125 3.582031 -2.695312 3.375 -2.78125 C 3.175781 -2.875 2.898438 -2.976562 2.546875 -3.09375 C 2.117188 -3.238281 1.769531 -3.375 1.5 -3.5 C 1.238281 -3.632812 1.015625 -3.828125 0.828125 -4.078125 C 0.640625 -4.335938 0.546875 -4.675781 0.546875 -5.09375 C 0.546875 -5.695312 0.742188 -6.148438 1.140625 -6.453125 C 1.546875 -6.765625 2.066406 -6.921875 2.703125 -6.921875 C 3.335938 -6.921875 3.851562 -6.765625 4.25 -6.453125 C 4.644531 -6.140625 4.84375 -5.660156 4.84375 -5.015625 L 4.84375 -4.890625 L 3.9375 -4.890625 L 3.9375 -5.046875 C 3.9375 -5.378906 3.820312 -5.640625 3.59375 -5.828125 C 3.363281 -6.023438 3.078125 -6.125 2.734375 -6.125 C 2.347656 -6.125 2.039062 -6.039062 1.8125 -5.875 C 1.582031 -5.71875 1.46875 -5.484375 1.46875 -5.171875 C 1.46875 -4.941406 1.53125 -4.75 1.65625 -4.59375 C 1.789062 -4.445312 1.957031 -4.328125 2.15625 -4.234375 C 2.351562 -4.148438 2.625 -4.050781 2.96875 -3.9375 C 3.40625 -3.789062 3.757812 -3.648438 4.03125 -3.515625 C 4.300781 -3.390625 4.53125 -3.195312 4.71875 -2.9375 C 4.90625 -2.6875 5 -2.363281 5 -1.96875 C 5 -1.238281 4.789062 -0.707031 4.375 -0.375 C 3.96875 -0.0390625 3.410156 0.125 2.703125 0.125 Z M 2.703125 0.125" transform="translate(188.422 119.335)"/></g></g></g><g fill="#FFF"><g><g><path d="M 3.171875 0.125 C 2.316406 0.125 1.65625 -0.171875 1.1875 -0.765625 C 0.71875 -1.367188 0.484375 -2.25 0.484375 -3.40625 C 0.484375 -4.5625 0.71875 -5.4375 1.1875 -6.03125 C 1.65625 -6.625 2.316406 -6.921875 3.171875 -6.921875 C 4.015625 -6.921875 4.671875 -6.625 5.140625 -6.03125 C 5.609375 -5.4375 5.84375 -4.5625 5.84375 -3.40625 C 5.84375 -2.25 5.609375 -1.367188 5.140625 -0.765625 C 4.671875 -0.171875 4.015625 0.125 3.171875 0.125 Z M 3.171875 -0.6875 C 3.722656 -0.6875 4.15625 -0.894531 4.46875 -1.3125 C 4.78125 -1.726562 4.9375 -2.34375 4.9375 -3.15625 L 4.9375 -3.65625 C 4.9375 -4.46875 4.78125 -5.082031 4.46875 -5.5 C 4.15625 -5.914062 3.722656 -6.125 3.171875 -6.125 C 2.609375 -6.125 2.171875 -5.914062 1.859375 -5.5 C 1.554688 -5.082031 1.40625 -4.46875 1.40625 -3.65625 L 1.40625 -3.15625 C 1.40625 -2.34375 1.554688 -1.726562 1.859375 -1.3125 C 2.171875 -0.894531 2.609375 -0.6875 3.171875 -0.6875 Z M 3.171875 -0.6875" transform="translate(193.845 119.335)"/></g></g></g><g fill="#FFF"><g><g><path d="M 3.09375 0.125 C 1.3125 0.125 0.421875 -1.050781 0.421875 -3.40625 C 0.421875 -5.75 1.3125 -6.921875 3.09375 -6.921875 C 3.8125 -6.921875 4.382812 -6.703125 4.8125 -6.265625 C 5.25 -5.828125 5.46875 -5.1875 5.46875 -4.34375 L 4.578125 -4.34375 C 4.578125 -4.925781 4.441406 -5.367188 4.171875 -5.671875 C 3.910156 -5.972656 3.550781 -6.125 3.09375 -6.125 C 2.5 -6.125 2.054688 -5.914062 1.765625 -5.5 C 1.472656 -5.09375 1.328125 -4.476562 1.328125 -3.65625 L 1.328125 -3.15625 C 1.328125 -2.332031 1.472656 -1.710938 1.765625 -1.296875 C 2.054688 -0.890625 2.5 -0.6875 3.09375 -0.6875 C 3.5625 -0.6875 3.929688 -0.832031 4.203125 -1.125 C 4.472656 -1.425781 4.609375 -1.863281 4.609375 -2.4375 L 5.46875 -2.4375 C 5.46875 -1.59375 5.253906 -0.953125 4.828125 -0.515625 C 4.398438 -0.0859375 3.820312 0.125 3.09375 0.125 Z M 3.09375 0.125" transform="translate(200.17 119.335)"/></g></g></g><g fill="#FFF"><g><g><path d="M 0.6875 -6.8125 L 1.5625 -6.8125 L 1.5625 0 L 0.6875 0 Z M 0.6875 -6.8125" transform="translate(206.039 119.335)"/></g></g></g><g fill="#FFF"><g><g><path d="M 2.15625 -6.8125 L 3.28125 -6.8125 L 5.4375 0 L 4.5 0 L 4.03125 -1.515625 L 1.328125 -1.515625 L 0.859375 0 L -0.015625 0 Z M 3.78125 -2.3125 L 2.859375 -5.34375 C 2.828125 -5.4375 2.789062 -5.566406 2.75 -5.734375 C 2.71875 -5.910156 2.703125 -6.03125 2.703125 -6.09375 L 2.65625 -6.09375 C 2.65625 -6.03125 2.632812 -5.910156 2.59375 -5.734375 C 2.5625 -5.566406 2.53125 -5.4375 2.5 -5.34375 L 1.5625 -2.3125 Z M 3.78125 -2.3125" transform="translate(208.3 119.335)"/></g></g></g><g fill="#FFF"><g><g><path d="M 0.6875 -6.8125 L 1.5625 -6.8125 L 1.5625 -0.796875 L 4.34375 -0.796875 L 4.34375 0 L 0.6875 0 Z M 0.6875 -6.8125" transform="translate(213.722 119.335)"/></g></g></g><g fill="#FFF"><g><g><path d="M 0.609375 -6.8125 L 1.9375 -6.8125 L 3.140625 -2.34375 C 3.191406 -2.132812 3.238281 -1.851562 3.28125 -1.5 C 3.332031 -1.15625 3.363281 -0.925781 3.375 -0.8125 L 3.40625 -0.8125 C 3.414062 -0.925781 3.441406 -1.160156 3.484375 -1.515625 C 3.523438 -1.867188 3.570312 -2.144531 3.625 -2.34375 L 4.84375 -6.8125 L 6.15625 -6.8125 L 6.15625 0 L 5.28125 0 L 5.28125 -4.9375 C 5.28125 -5.039062 5.289062 -5.21875 5.3125 -5.46875 C 5.332031 -5.726562 5.347656 -5.90625 5.359375 -6 L 5.3125 -6 C 5.289062 -5.90625 5.253906 -5.726562 5.203125 -5.46875 C 5.148438 -5.21875 5.113281 -5.039062 5.09375 -4.9375 L 3.734375 0 L 2.953125 0 L 1.59375 -4.9375 C 1.550781 -5.101562 1.507812 -5.296875 1.46875 -5.515625 C 1.425781 -5.742188 1.394531 -5.90625 1.375 -6 L 1.34375 -6 C 1.34375 -5.90625 1.347656 -5.742188 1.359375 -5.515625 C 1.378906 -5.296875 1.394531 -5.101562 1.40625 -4.9375 L 1.40625 0 L 0.609375 0 Z M 0.609375 -6.8125" transform="translate(220.503 119.335)"/></g></g></g><g fill="#FFF"><g><g><path d="M 0.6875 -6.8125 L 4.890625 -6.8125 L 4.890625 -6.015625 L 1.5625 -6.015625 L 1.5625 -3.875 L 4.453125 -3.875 L 4.453125 -3.078125 L 1.5625 -3.078125 L 1.5625 -0.796875 L 4.953125 -0.796875 L 4.953125 0 L 0.6875 0 Z M 0.6875 -6.8125" transform="translate(227.275 119.335)"/></g></g></g><g fill="#FFF"><g><g><path d="M 0.6875 -6.8125 L 2.8125 -6.8125 C 3.625 -6.8125 4.253906 -6.53125 4.703125 -5.96875 C 5.160156 -5.40625 5.390625 -4.582031 5.390625 -3.5 C 5.390625 -2.351562 5.160156 -1.484375 4.703125 -0.890625 C 4.253906 -0.296875 3.625 0 2.8125 0 L 0.6875 0 Z M 2.734375 -0.796875 C 3.273438 -0.796875 3.695312 -1 4 -1.40625 C 4.3125 -1.820312 4.46875 -2.4375 4.46875 -3.25 L 4.46875 -3.75 C 4.46875 -4.488281 4.3125 -5.050781 4 -5.4375 C 3.695312 -5.820312 3.273438 -6.015625 2.734375 -6.015625 L 1.5625 -6.015625 L 1.5625 -0.796875 Z M 2.734375 -0.796875" transform="translate(232.698 119.335)"/></g></g></g><g fill="#FFF"><g><g><path d="M 2.453125 0.125 C 1.828125 0.125 1.316406 -0.0507812 0.921875 -0.40625 C 0.535156 -0.757812 0.34375 -1.234375 0.34375 -1.828125 C 0.34375 -2.253906 0.429688 -2.609375 0.609375 -2.890625 C 0.796875 -3.179688 1.039062 -3.382812 1.34375 -3.5 L 1.34375 -3.53125 C 1.070312 -3.6875 0.859375 -3.882812 0.703125 -4.125 C 0.546875 -4.375 0.46875 -4.6875 0.46875 -5.0625 C 0.46875 -5.65625 0.65625 -6.113281 1.03125 -6.4375 C 1.40625 -6.757812 1.910156 -6.921875 2.546875 -6.921875 C 2.941406 -6.921875 3.296875 -6.84375 3.609375 -6.6875 C 3.921875 -6.53125 4.164062 -6.3125 4.34375 -6.03125 C 4.519531 -5.75 4.609375 -5.425781 4.609375 -5.0625 L 4.609375 -4.875 L 3.796875 -4.875 L 3.796875 -4.96875 C 3.796875 -5.375 3.679688 -5.675781 3.453125 -5.875 C 3.222656 -6.082031 2.914062 -6.1875 2.53125 -6.1875 C 2.175781 -6.1875 1.890625 -6.085938 1.671875 -5.890625 C 1.453125 -5.703125 1.34375 -5.410156 1.34375 -5.015625 C 1.34375 -4.628906 1.441406 -4.332031 1.640625 -4.125 C 1.835938 -3.914062 2.082031 -3.8125 2.375 -3.8125 L 2.890625 -3.8125 L 2.890625 -3.09375 L 2.40625 -3.09375 C 1.613281 -3.09375 1.21875 -2.691406 1.21875 -1.890625 C 1.21875 -1.453125 1.332031 -1.128906 1.5625 -0.921875 C 1.800781 -0.722656 2.117188 -0.625 2.515625 -0.625 C 3.367188 -0.625 3.796875 -1.046875 3.796875 -1.890625 L 3.796875 -3.8125 L 5.296875 -3.8125 L 5.296875 -3.078125 L 4.609375 -3.078125 L 4.609375 -1.921875 C 4.609375 -1.285156 4.421875 -0.785156 4.046875 -0.421875 C 3.679688 -0.0546875 3.148438 0.125 2.453125 0.125 Z M 2.453125 0.125" transform="translate(248.51 119.335)"/></g></g></g><g fill="#FFF"><g><g><path d="M 2.9375 0.125 C 2.226562 0.125 1.675781 -0.0703125 1.28125 -0.46875 C 0.882812 -0.875 0.6875 -1.457031 0.6875 -2.21875 L 0.6875 -6.8125 L 1.5625 -6.8125 L 1.5625 -2.15625 C 1.5625 -1.6875 1.679688 -1.320312 1.921875 -1.0625 C 2.171875 -0.8125 2.507812 -0.6875 2.9375 -0.6875 C 3.363281 -0.6875 3.695312 -0.8125 3.9375 -1.0625 C 4.1875 -1.320312 4.3125 -1.6875 4.3125 -2.15625 L 4.3125 -6.8125 L 5.171875 -6.8125 L 5.171875 -2.21875 C 5.171875 -1.457031 4.972656 -0.875 4.578125 -0.46875 C 4.191406 -0.0703125 3.644531 0.125 2.9375 0.125 Z M 2.9375 0.125" transform="translate(262.965 119.335)"/></g></g></g><g fill="#FFF"><g><g><path d="M 0.6875 -6.8125 L 3.125 -6.8125 C 3.78125 -6.8125 4.28125 -6.628906 4.625 -6.265625 C 4.976562 -5.910156 5.15625 -5.429688 5.15625 -4.828125 C 5.15625 -4.210938 4.972656 -3.722656 4.609375 -3.359375 C 4.242188 -2.992188 3.75 -2.8125 3.125 -2.8125 L 1.5625 -2.8125 L 1.5625 0 L 0.6875 0 Z M 3.09375 -3.609375 C 3.4375 -3.609375 3.710938 -3.71875 3.921875 -3.9375 C 4.140625 -4.15625 4.25 -4.453125 4.25 -4.828125 C 4.25 -5.191406 4.148438 -5.476562 3.953125 -5.6875 C 3.753906 -5.90625 3.46875 -6.015625 3.09375 -6.015625 L 1.5625 -6.015625 L 1.5625 -3.609375 Z M 3.09375 -3.609375" transform="translate(284.647 119.335)"/></g></g></g><g fill="#FFF"><g><g><path d="M 0.6875 -6.8125 L 3.4375 -6.8125 C 4.09375 -6.8125 4.59375 -6.640625 4.9375 -6.296875 C 5.289062 -5.953125 5.46875 -5.492188 5.46875 -4.921875 C 5.46875 -4.492188 5.359375 -4.125 5.140625 -3.8125 C 4.929688 -3.507812 4.632812 -3.296875 4.25 -3.171875 L 5.625 0 L 4.65625 0 L 3.390625 -3 L 1.5625 -3 L 1.5625 0 L 0.6875 0 Z M 3.40625 -3.796875 C 3.75 -3.796875 4.023438 -3.898438 4.234375 -4.109375 C 4.441406 -4.316406 4.546875 -4.585938 4.546875 -4.921875 C 4.546875 -5.265625 4.445312 -5.53125 4.25 -5.71875 C 4.050781 -5.914062 3.769531 -6.015625 3.40625 -6.015625 L 1.5625 -6.015625 L 1.5625 -3.796875 Z M 3.40625 -3.796875" transform="translate(290.07 119.335)"/></g></g></g><g fill="#FFF"><g><g><path d="M 2.046875 -6.015625 L 0.1875 -6.015625 L 0.1875 -6.8125 L 4.765625 -6.8125 L 4.765625 -6.015625 L 2.921875 -6.015625 L 2.921875 0 L 2.046875 0 Z M 2.046875 -6.015625" transform="translate(315.36 119.335)"/></g></g></g><g fill="#FFF"><g><g><path d="M 0.6875 -6.8125 L 1.453125 -6.8125 L 3.984375 -2.53125 C 4.035156 -2.425781 4.109375 -2.265625 4.203125 -2.046875 C 4.304688 -1.828125 4.367188 -1.6875 4.390625 -1.625 L 4.421875 -1.625 C 4.421875 -1.695312 4.414062 -1.828125 4.40625 -2.015625 C 4.394531 -2.203125 4.390625 -2.375 4.390625 -2.53125 L 4.390625 -6.8125 L 5.171875 -6.8125 L 5.171875 0 L 4.453125 0 L 1.90625 -4.328125 C 1.832031 -4.453125 1.75 -4.617188 1.65625 -4.828125 C 1.5625 -5.046875 1.5 -5.1875 1.46875 -5.25 L 1.4375 -5.234375 C 1.445312 -5.171875 1.457031 -5.046875 1.46875 -4.859375 C 1.476562 -4.679688 1.484375 -4.503906 1.484375 -4.328125 L 1.484375 0 L 0.6875 0 Z M 0.6875 -6.8125" transform="translate(328.913 119.335)"/></g></g></g></svg>